<svg aria-hidden="true" style="position: absolute; width: 0; height: 0; overflow: hidden;" version="1.1" xmlns="http://www.w3.org/2000/svg" xmlns:xlink="http://www.w3.org/1999/xlink">
<defs>
<symbol id="icon-logo" viewBox="0 0 37 32">
<path d="M6.131 8.207c-0.059 0.022-0.135 0.040-0.23 0.055-0.095 0.022-0.201 0.033-0.318 0.033-0.227 0-0.391-0.040-0.494-0.121-0.095-0.088-0.143-0.23-0.143-0.428v-5.661c0-0.124 0.033-0.219 0.099-0.285 0.073-0.073 0.172-0.128 0.296-0.165 0.227-0.080 0.497-0.135 0.812-0.165s0.629-0.044 0.944-0.044c0.951 0 1.657 0.194 2.117 0.582 0.468 0.38 0.702 0.918 0.702 1.613 0 0.483-0.128 0.896-0.384 1.24-0.249 0.336-0.607 0.589-1.075 0.757 0.176 0.219 0.347 0.439 0.516 0.658 0.168 0.212 0.325 0.417 0.472 0.614 0.154 0.19 0.289 0.366 0.406 0.527 0.124 0.154 0.223 0.282 0.296 0.384-0.037 0.168-0.117 0.296-0.241 0.384s-0.26 0.132-0.406 0.132c-0.176 0-0.315-0.040-0.417-0.121-0.102-0.088-0.205-0.205-0.307-0.351l-1.415-2.041h-1.229v2.403zM7.184 4.86c0.475 0 0.852-0.102 1.13-0.307s0.417-0.516 0.417-0.933c0-0.41-0.143-0.717-0.428-0.922-0.278-0.205-0.691-0.307-1.24-0.307-0.168 0-0.336 0.007-0.505 0.022-0.161 0.015-0.307 0.033-0.439 0.055v2.392h1.064zM16.126 5.661c0 0.417-0.062 0.794-0.187 1.13s-0.3 0.622-0.527 0.856c-0.219 0.234-0.49 0.417-0.812 0.549-0.322 0.124-0.68 0.187-1.075 0.187s-0.753-0.062-1.075-0.187c-0.322-0.132-0.596-0.314-0.823-0.549-0.219-0.234-0.391-0.519-0.516-0.856s-0.187-0.713-0.187-1.13c0-0.417 0.062-0.794 0.187-1.13s0.3-0.622 0.527-0.856c0.227-0.234 0.501-0.413 0.823-0.538 0.322-0.132 0.677-0.198 1.064-0.198s0.742 0.066 1.064 0.197c0.322 0.124 0.596 0.307 0.823 0.549 0.227 0.234 0.402 0.519 0.527 0.856 0.124 0.329 0.187 0.702 0.187 1.119zM13.526 3.862c-0.439 0-0.786 0.157-1.042 0.472s-0.384 0.757-0.384 1.328c0 0.571 0.124 1.013 0.373 1.328 0.249 0.307 0.6 0.461 1.053 0.461s0.805-0.154 1.053-0.461c0.249-0.314 0.373-0.757 0.373-1.328 0-0.563-0.128-1.002-0.384-1.317-0.249-0.322-0.596-0.483-1.042-0.483zM18.198 7.033c-0.183-0.358-0.406-0.867-0.669-1.525s-0.519-1.404-0.768-2.238c0.066-0.080 0.154-0.146 0.263-0.198 0.11-0.058 0.227-0.088 0.351-0.088 0.161 0 0.293 0.040 0.395 0.121 0.102 0.073 0.186 0.205 0.252 0.395 0.198 0.592 0.402 1.178 0.614 1.755 0.212 0.571 0.446 1.163 0.702 1.777h0.044c0.11-0.234 0.219-0.508 0.329-0.823 0.117-0.314 0.23-0.647 0.34-0.998s0.212-0.706 0.307-1.064c0.095-0.366 0.179-0.713 0.252-1.042 0.073-0.037 0.146-0.066 0.219-0.088 0.080-0.022 0.172-0.033 0.274-0.033 0.161 0 0.296 0.040 0.406 0.121 0.11 0.073 0.165 0.19 0.165 0.351 0 0.19-0.051 0.483-0.154 0.878-0.095 0.388-0.223 0.819-0.384 1.295-0.161 0.468-0.344 0.944-0.549 1.426s-0.41 0.911-0.614 1.284c-0.366 0.644-0.698 1.134-0.998 1.47-0.293 0.336-0.57 0.505-0.834 0.505-0.205 0-0.369-0.059-0.494-0.176-0.117-0.11-0.19-0.249-0.219-0.417 0.117-0.102 0.245-0.227 0.384-0.373s0.278-0.304 0.417-0.472c0.139-0.168 0.271-0.344 0.395-0.527 0.124-0.176 0.23-0.347 0.318-0.516-0.124-0.037-0.245-0.106-0.362-0.208-0.117-0.11-0.245-0.307-0.384-0.592zM24.606 7.493c0.256 0 0.479-0.026 0.669-0.077s0.326-0.106 0.406-0.165v-1.393l-1.196 0.121c-0.336 0.037-0.589 0.113-0.757 0.23-0.168 0.11-0.252 0.282-0.252 0.516 0 0.241 0.091 0.432 0.274 0.571 0.183 0.132 0.468 0.197 0.856 0.197zM24.584 2.94c0.68 0 1.221 0.15 1.624 0.45 0.402 0.293 0.603 0.757 0.603 1.393v2.556c0 0.168-0.040 0.3-0.121 0.395-0.073 0.088-0.176 0.172-0.307 0.252-0.19 0.11-0.435 0.205-0.735 0.285s-0.647 0.121-1.042 0.121c-0.709 0-1.265-0.139-1.668-0.417-0.395-0.278-0.592-0.688-0.592-1.229 0-0.483 0.154-0.852 0.461-1.108 0.314-0.256 0.764-0.413 1.349-0.472l1.525-0.154v-0.241c0-0.322-0.106-0.556-0.318-0.702-0.205-0.146-0.494-0.219-0.867-0.219-0.293 0-0.574 0.040-0.845 0.121s-0.512 0.172-0.724 0.274c-0.073-0.059-0.135-0.128-0.186-0.208-0.051-0.088-0.077-0.183-0.077-0.285 0-0.124 0.029-0.227 0.088-0.307 0.066-0.080 0.165-0.15 0.296-0.208 0.205-0.102 0.439-0.176 0.702-0.219 0.263-0.051 0.541-0.077 0.834-0.077zM28.981 8.294c-0.212 0-0.369-0.040-0.472-0.121s-0.154-0.216-0.154-0.406v-6.66c0.051-0.015 0.124-0.033 0.219-0.055s0.198-0.033 0.307-0.033c0.212 0 0.369 0.040 0.472 0.121s0.154 0.216 0.154 0.406v6.66c-0.058 0.022-0.135 0.040-0.23 0.055-0.088 0.022-0.186 0.033-0.296 0.033zM8.159 13.33c0 0.124-0.037 0.234-0.11 0.329-0.066 0.095-0.146 0.165-0.241 0.208-0.19-0.124-0.41-0.241-0.658-0.351-0.241-0.11-0.549-0.165-0.922-0.165-0.322 0-0.618 0.055-0.889 0.165-0.263 0.11-0.494 0.271-0.691 0.483-0.19 0.212-0.34 0.475-0.45 0.79s-0.165 0.677-0.165 1.086c0 0.826 0.205 1.452 0.614 1.876s0.951 0.636 1.624 0.636c0.358 0 0.669-0.051 0.933-0.154s0.49-0.219 0.68-0.351c0.080 0.051 0.154 0.124 0.219 0.219 0.073 0.095 0.11 0.205 0.11 0.329 0 0.102-0.029 0.198-0.088 0.285-0.051 0.088-0.139 0.168-0.263 0.241-0.161 0.102-0.38 0.194-0.658 0.274s-0.629 0.121-1.053 0.121c-0.468 0-0.903-0.070-1.306-0.208-0.402-0.146-0.753-0.362-1.053-0.647-0.3-0.293-0.538-0.655-0.713-1.086-0.168-0.439-0.252-0.951-0.252-1.536 0-0.571 0.088-1.075 0.263-1.514s0.41-0.805 0.702-1.097c0.3-0.293 0.647-0.512 1.042-0.658 0.395-0.154 0.816-0.23 1.262-0.23 0.314 0 0.596 0.029 0.845 0.088 0.256 0.051 0.472 0.121 0.647 0.208 0.183 0.088 0.322 0.19 0.417 0.307 0.102 0.117 0.154 0.234 0.154 0.351zM11.374 18.465c0.256 0 0.479-0.026 0.669-0.077s0.325-0.106 0.406-0.165v-1.393l-1.196 0.121c-0.336 0.037-0.589 0.113-0.757 0.23-0.168 0.11-0.252 0.282-0.252 0.516 0 0.241 0.091 0.432 0.274 0.57 0.183 0.132 0.468 0.198 0.856 0.198zM11.352 13.912c0.68 0 1.222 0.15 1.624 0.45 0.402 0.293 0.603 0.757 0.603 1.393v2.556c0 0.168-0.040 0.3-0.121 0.395-0.073 0.088-0.176 0.172-0.307 0.252-0.19 0.11-0.435 0.205-0.735 0.285s-0.647 0.121-1.042 0.121c-0.71 0-1.265-0.139-1.668-0.417-0.395-0.278-0.592-0.688-0.592-1.229 0-0.483 0.154-0.852 0.461-1.108 0.315-0.256 0.764-0.413 1.35-0.472l1.525-0.154v-0.241c0-0.322-0.106-0.556-0.318-0.702-0.205-0.146-0.494-0.219-0.867-0.219-0.293 0-0.574 0.040-0.845 0.121s-0.512 0.172-0.724 0.274c-0.073-0.059-0.135-0.128-0.187-0.208-0.051-0.088-0.077-0.183-0.077-0.285 0-0.124 0.029-0.227 0.088-0.307 0.066-0.080 0.165-0.15 0.296-0.208 0.205-0.102 0.439-0.176 0.702-0.219 0.263-0.051 0.541-0.077 0.834-0.077zM18.513 15.876c0-0.358-0.102-0.622-0.307-0.79-0.198-0.168-0.468-0.252-0.812-0.252-0.256 0-0.486 0.033-0.691 0.099-0.198 0.066-0.369 0.139-0.516 0.219v4.027c-0.051 0.022-0.124 0.040-0.219 0.055-0.088 0.022-0.187 0.033-0.296 0.033-0.212 0-0.369-0.040-0.472-0.121s-0.154-0.216-0.154-0.406v-3.621c0-0.168 0.033-0.304 0.099-0.406s0.176-0.205 0.329-0.307c0.205-0.124 0.472-0.238 0.801-0.34s0.702-0.154 1.119-0.154c0.709 0 1.265 0.161 1.668 0.483 0.402 0.315 0.603 0.794 0.603 1.437v3.346c-0.051 0.022-0.124 0.040-0.219 0.055-0.095 0.022-0.198 0.033-0.307 0.033-0.212 0-0.369-0.040-0.472-0.121s-0.154-0.216-0.154-0.406v-2.864zM23.479 13.912c0.219 0 0.424 0.026 0.614 0.077 0.198 0.044 0.369 0.102 0.516 0.176v-2.085c0.051-0.015 0.124-0.033 0.219-0.055s0.198-0.033 0.307-0.033c0.212 0 0.369 0.040 0.472 0.121s0.154 0.216 0.154 0.406v5.749c0 0.154-0.033 0.282-0.099 0.384-0.066 0.095-0.168 0.186-0.307 0.274-0.168 0.11-0.399 0.208-0.691 0.296-0.285 0.088-0.614 0.132-0.987 0.132-0.417 0-0.797-0.051-1.141-0.154-0.344-0.11-0.636-0.274-0.878-0.494-0.241-0.227-0.428-0.508-0.56-0.845-0.132-0.344-0.198-0.746-0.198-1.207 0-0.475 0.066-0.885 0.198-1.229 0.139-0.351 0.326-0.636 0.56-0.856 0.234-0.227 0.505-0.391 0.812-0.494 0.314-0.11 0.651-0.165 1.009-0.165zM24.62 15.13c-0.124-0.080-0.271-0.15-0.439-0.208s-0.355-0.088-0.56-0.088c-0.219 0-0.424 0.033-0.614 0.099-0.183 0.066-0.344 0.176-0.483 0.329-0.139 0.146-0.249 0.336-0.329 0.57-0.080 0.227-0.121 0.505-0.121 0.834 0 0.614 0.143 1.061 0.428 1.338 0.293 0.278 0.68 0.417 1.163 0.417 0.219 0 0.402-0.022 0.549-0.066 0.154-0.051 0.289-0.11 0.406-0.176v-3.050zM28.269 18.004c-0.183-0.358-0.406-0.867-0.669-1.525s-0.519-1.404-0.768-2.238c0.066-0.080 0.154-0.146 0.263-0.197 0.11-0.059 0.227-0.088 0.351-0.088 0.161 0 0.293 0.040 0.395 0.121 0.102 0.073 0.186 0.205 0.252 0.395 0.198 0.592 0.402 1.178 0.614 1.755 0.212 0.57 0.446 1.163 0.702 1.777h0.044c0.11-0.234 0.219-0.508 0.329-0.823 0.117-0.314 0.23-0.647 0.34-0.998s0.212-0.706 0.307-1.064c0.095-0.366 0.179-0.713 0.252-1.042 0.073-0.037 0.146-0.066 0.219-0.088 0.080-0.022 0.172-0.033 0.274-0.033 0.161 0 0.296 0.040 0.406 0.121 0.11 0.073 0.165 0.19 0.165 0.351 0 0.19-0.051 0.483-0.154 0.878-0.095 0.388-0.223 0.819-0.384 1.295-0.161 0.468-0.344 0.944-0.549 1.426s-0.41 0.911-0.614 1.284c-0.366 0.644-0.698 1.134-0.998 1.47-0.293 0.336-0.57 0.505-0.834 0.505-0.205 0-0.369-0.058-0.494-0.176-0.117-0.11-0.19-0.249-0.219-0.417 0.117-0.102 0.245-0.227 0.384-0.373s0.278-0.304 0.417-0.472c0.139-0.168 0.271-0.344 0.395-0.527 0.124-0.176 0.23-0.347 0.318-0.516-0.124-0.037-0.245-0.106-0.362-0.208-0.117-0.11-0.245-0.307-0.384-0.592zM8.844 28.46c-0.059 0.051-0.139 0.095-0.241 0.132s-0.219 0.055-0.351 0.055c-0.154 0-0.289-0.022-0.406-0.066-0.11-0.051-0.186-0.128-0.23-0.23-0.336-0.775-0.629-1.463-0.878-2.063-0.241-0.6-0.435-1.101-0.582-1.503h-0.055c-0.022 0.519-0.044 0.998-0.066 1.437-0.015 0.432-0.033 0.856-0.055 1.273s-0.048 0.841-0.077 1.273c-0.022 0.432-0.048 0.896-0.077 1.393-0.059 0.022-0.135 0.040-0.23 0.055-0.088 0.022-0.183 0.033-0.285 0.033-0.395 0-0.592-0.161-0.592-0.483 0-0.095 0.004-0.263 0.011-0.505 0.015-0.241 0.029-0.527 0.044-0.856 0.022-0.336 0.044-0.706 0.066-1.108 0.029-0.402 0.059-0.808 0.088-1.218 0.029-0.417 0.059-0.823 0.088-1.218 0.029-0.402 0.059-0.772 0.088-1.108 0.059-0.058 0.154-0.121 0.285-0.186 0.139-0.066 0.307-0.099 0.505-0.099 0.234 0 0.421 0.044 0.56 0.132 0.139 0.080 0.249 0.205 0.329 0.373 0.117 0.256 0.238 0.534 0.362 0.834 0.124 0.293 0.249 0.592 0.373 0.9 0.124 0.3 0.245 0.6 0.362 0.9s0.23 0.581 0.34 0.845h0.055c0.139-0.366 0.278-0.728 0.417-1.086 0.146-0.358 0.285-0.702 0.417-1.031 0.139-0.329 0.267-0.64 0.384-0.933 0.124-0.293 0.238-0.556 0.34-0.79 0.080-0.037 0.179-0.070 0.296-0.099s0.238-0.044 0.362-0.044c0.241 0 0.421 0.037 0.538 0.11 0.124 0.073 0.205 0.179 0.241 0.318 0.029 0.132 0.062 0.351 0.099 0.658 0.037 0.3 0.073 0.647 0.11 1.042s0.073 0.816 0.11 1.262c0.037 0.439 0.069 0.867 0.099 1.284 0.029 0.41 0.055 0.79 0.077 1.141 0.022 0.344 0.037 0.614 0.044 0.812-0.080 0.051-0.168 0.088-0.263 0.11-0.088 0.029-0.194 0.044-0.318 0.044-0.154 0-0.289-0.033-0.406-0.099-0.11-0.066-0.172-0.19-0.187-0.373-0.029-0.497-0.059-0.987-0.088-1.47-0.022-0.483-0.044-0.94-0.066-1.371s-0.044-0.83-0.066-1.196c-0.015-0.366-0.029-0.677-0.044-0.933h-0.044c-0.139 0.373-0.329 0.848-0.571 1.426-0.234 0.578-0.538 1.32-0.911 2.227zM15.231 29.436c0.256 0 0.479-0.026 0.669-0.077s0.325-0.106 0.406-0.165v-1.393l-1.196 0.121c-0.336 0.037-0.589 0.113-0.757 0.23-0.168 0.11-0.252 0.282-0.252 0.516 0 0.241 0.091 0.432 0.274 0.57 0.183 0.132 0.468 0.198 0.856 0.198zM15.209 24.883c0.68 0 1.221 0.15 1.624 0.45 0.402 0.293 0.603 0.757 0.603 1.393v2.556c0 0.168-0.040 0.3-0.121 0.395-0.073 0.088-0.176 0.172-0.307 0.252-0.19 0.11-0.435 0.205-0.735 0.285s-0.647 0.121-1.042 0.121c-0.71 0-1.265-0.139-1.668-0.417-0.395-0.278-0.592-0.688-0.592-1.229 0-0.483 0.154-0.852 0.461-1.108 0.315-0.256 0.764-0.413 1.349-0.472l1.525-0.154v-0.241c0-0.322-0.106-0.556-0.318-0.702-0.205-0.146-0.494-0.219-0.867-0.219-0.293 0-0.574 0.040-0.845 0.121s-0.512 0.172-0.724 0.274c-0.073-0.058-0.135-0.128-0.187-0.208-0.051-0.088-0.077-0.183-0.077-0.285 0-0.124 0.029-0.227 0.088-0.307 0.066-0.080 0.165-0.15 0.296-0.208 0.205-0.102 0.439-0.176 0.702-0.219 0.263-0.051 0.541-0.077 0.834-0.077zM22.37 26.847c0-0.358-0.102-0.622-0.307-0.79-0.198-0.168-0.468-0.252-0.812-0.252-0.256 0-0.486 0.033-0.691 0.099-0.198 0.066-0.369 0.139-0.516 0.219v4.026c-0.051 0.022-0.124 0.040-0.219 0.055-0.088 0.022-0.186 0.033-0.296 0.033-0.212 0-0.369-0.040-0.472-0.121s-0.154-0.216-0.154-0.406v-3.621c0-0.168 0.033-0.304 0.099-0.406s0.176-0.205 0.329-0.307c0.205-0.124 0.472-0.238 0.801-0.34s0.702-0.154 1.119-0.154c0.709 0 1.265 0.161 1.668 0.483 0.402 0.314 0.603 0.794 0.603 1.437v3.346c-0.051 0.022-0.124 0.040-0.219 0.055-0.095 0.022-0.198 0.033-0.307 0.033-0.212 0-0.369-0.040-0.472-0.121s-0.154-0.216-0.154-0.406v-2.864zM26.228 30.149c-0.051 0.022-0.124 0.040-0.219 0.055-0.088 0.022-0.19 0.033-0.307 0.033-0.212 0-0.369-0.040-0.472-0.121s-0.154-0.216-0.154-0.406v-4.641c0.058-0.015 0.132-0.033 0.219-0.055 0.095-0.022 0.201-0.033 0.318-0.033 0.212 0 0.366 0.040 0.461 0.121 0.102 0.080 0.154 0.219 0.154 0.417v4.63zM24.955 23.457c0-0.19 0.066-0.347 0.198-0.472 0.132-0.132 0.3-0.198 0.505-0.198s0.369 0.066 0.494 0.198c0.124 0.124 0.186 0.282 0.186 0.472s-0.062 0.351-0.186 0.483c-0.124 0.124-0.289 0.186-0.494 0.186s-0.373-0.062-0.505-0.186c-0.132-0.132-0.198-0.293-0.198-0.483zM29.727 29.436c0.256 0 0.479-0.026 0.669-0.077s0.326-0.106 0.406-0.165v-1.393l-1.196 0.121c-0.336 0.037-0.589 0.113-0.757 0.23-0.168 0.11-0.252 0.282-0.252 0.516 0 0.241 0.091 0.432 0.274 0.57 0.183 0.132 0.468 0.198 0.856 0.198zM29.705 24.883c0.68 0 1.221 0.15 1.624 0.45 0.402 0.293 0.603 0.757 0.603 1.393v2.556c0 0.168-0.040 0.3-0.121 0.395-0.073 0.088-0.176 0.172-0.307 0.252-0.19 0.11-0.435 0.205-0.735 0.285s-0.647 0.121-1.042 0.121c-0.709 0-1.265-0.139-1.668-0.417-0.395-0.278-0.592-0.688-0.592-1.229 0-0.483 0.154-0.852 0.461-1.108 0.314-0.256 0.764-0.413 1.349-0.472l1.525-0.154v-0.241c0-0.322-0.106-0.556-0.318-0.702-0.205-0.146-0.494-0.219-0.867-0.219-0.293 0-0.574 0.040-0.845 0.121s-0.512 0.172-0.724 0.274c-0.073-0.058-0.135-0.128-0.186-0.208-0.051-0.088-0.077-0.183-0.077-0.285 0-0.124 0.029-0.227 0.088-0.307 0.066-0.080 0.165-0.15 0.296-0.208 0.205-0.102 0.439-0.176 0.702-0.219 0.263-0.051 0.541-0.077 0.834-0.077z"></path>
<path d="M6.131 8.207l0.16 0.428 0.297-0.111v-0.317h-0.457zM5.901 8.261l-0.070-0.452-0.017 0.003-0.016 0.004 0.103 0.445zM5.089 8.174l-0.31 0.336 0.013 0.012 0.014 0.011 0.282-0.359zM5.341 1.635l0.129 0.439 0.012-0.004 0.012-0.004-0.153-0.431zM9.214 2.008l-0.294 0.35 0.003 0.002 0.003 0.002 0.288-0.355zM9.532 4.86l-0.367-0.273-0.001 0.001 0.368 0.272zM8.457 5.617l-0.155-0.43-0.602 0.216 0.4 0.499 0.357-0.286zM8.973 6.276l-0.363 0.278 0.002 0.003 0.002 0.003 0.358-0.284zM9.444 6.89l-0.367 0.272 0.006 0.008 0.006 0.007 0.356-0.287zM9.85 7.417l-0.37 0.269 0.007 0.010 0.007 0.009 0.355-0.288zM10.146 7.801l0.447 0.097 0.043-0.198-0.118-0.165-0.372 0.266zM9.082 8.196l-0.297 0.347 0.007 0.006 0.008 0.006 0.282-0.359zM8.775 7.845l-0.376 0.261 0.001 0.002 0.375-0.262zM7.36 5.804l0.376-0.261-0.136-0.197h-0.239v0.457zM6.131 5.804v-0.457h-0.457v0.457h0.457zM8.303 2.699l-0.271 0.368 0.005 0.003 0.267-0.371zM6.559 2.414l-0.040-0.455-0.002 0 0.041 0.455zM6.12 2.469l-0.075-0.451-0.382 0.064v0.387h0.457zM6.12 4.86h-0.457v0.457h0.457v-0.457zM6.131 8.207l-0.161-0.428c-0.018 0.007-0.061 0.019-0.139 0.031l0.070 0.452 0.069 0.452c0.111-0.017 0.222-0.041 0.321-0.079l-0.16-0.428zM5.901 8.261l-0.103-0.445c-0.056 0.013-0.126 0.021-0.215 0.021v0.914c0.145 0 0.286-0.014 0.421-0.045l-0.103-0.445zM5.582 8.294v-0.457c-0.088 0-0.148-0.008-0.185-0.017s-0.039-0.016-0.026-0.006l-0.565 0.719c0.224 0.176 0.515 0.218 0.776 0.218v-0.457zM5.089 8.174l0.31-0.336c0.018 0.016 0.020 0.029 0.017 0.019-0.004-0.013-0.012-0.046-0.012-0.111h-0.914c0 0.258 0.061 0.553 0.29 0.764l0.31-0.336zM4.946 7.746h0.457v-5.661h-0.914v5.661h0.457zM4.946 2.085h0.457c0-0.023 0.003-0.025-0-0.015-0.002 0.005-0.005 0.014-0.011 0.024s-0.014 0.020-0.023 0.029l-0.646-0.647c-0.177 0.177-0.233 0.405-0.233 0.609h0.457zM5.045 1.799l0.323 0.323c0.007-0.007 0.033-0.029 0.102-0.049l-0.258-0.877c-0.179 0.053-0.351 0.141-0.49 0.28l0.323 0.323zM5.341 1.635l0.153 0.431c0.182-0.065 0.414-0.113 0.701-0.14l-0.042-0.455-0.042-0.455c-0.341 0.032-0.651 0.093-0.922 0.189l0.153 0.431zM6.153 1.47l0.042 0.455c0.3-0.028 0.601-0.042 0.901-0.042v-0.914c-0.329 0-0.657 0.015-0.986 0.046l0.042 0.455zM7.096 1.426v0.457c0.902 0 1.481 0.186 1.823 0.474l0.589-0.7c-0.579-0.487-1.412-0.689-2.412-0.689v0.457zM9.214 2.008l-0.288 0.355c0.344 0.28 0.533 0.677 0.533 1.258h0.914c0-0.809-0.279-1.487-0.871-1.968l-0.288 0.355zM9.916 3.621h-0.457c0 0.397-0.104 0.712-0.294 0.967l0.733 0.546c0.322-0.433 0.475-0.945 0.475-1.513h-0.457zM9.532 4.86l-0.368-0.272c-0.185 0.251-0.463 0.455-0.862 0.599l0.309 0.86c0.537-0.193 0.976-0.494 1.288-0.916l-0.368-0.272zM8.457 5.617l-0.357 0.286c0.174 0.217 0.344 0.434 0.51 0.651l0.726-0.556c-0.17-0.222-0.344-0.444-0.521-0.666l-0.357 0.286zM8.973 6.276l-0.358 0.284c0.165 0.209 0.32 0.409 0.463 0.602l0.735-0.544c-0.15-0.202-0.31-0.411-0.481-0.626l-0.358 0.284zM9.444 6.89l-0.356 0.287c0.15 0.185 0.28 0.355 0.392 0.508l0.739-0.538c-0.122-0.168-0.263-0.35-0.42-0.545l-0.356 0.287zM9.85 7.417l-0.355 0.288c0.121 0.15 0.214 0.27 0.28 0.362l0.744-0.531c-0.081-0.113-0.186-0.249-0.313-0.406l-0.355 0.288zM10.146 7.801l-0.447-0.097c-0.016 0.072-0.040 0.095-0.058 0.108l0.527 0.747c0.23-0.162 0.367-0.396 0.424-0.66l-0.447-0.097zM9.905 8.185l-0.264-0.373c-0.051 0.036-0.094 0.048-0.142 0.048v0.914c0.245 0 0.471-0.075 0.67-0.215l-0.264-0.373zM9.499 8.316v-0.457c-0.054 0-0.088-0.006-0.109-0.012-0.019-0.006-0.026-0.011-0.026-0.011l-0.565 0.719c0.207 0.163 0.457 0.218 0.699 0.218v-0.457zM9.082 8.196l0.297-0.347c-0.066-0.056-0.143-0.142-0.23-0.266l-0.749 0.524c0.118 0.168 0.245 0.317 0.384 0.436l0.297-0.347zM8.775 7.845l0.376-0.261-1.415-2.041-0.751 0.521 1.415 2.041 0.376-0.261zM7.36 5.804v-0.457h-1.229v0.914h1.229v-0.457zM6.131 5.804h-0.457v2.403h0.914v-2.403h-0.457zM7.184 4.86v0.457c0.537 0 1.020-0.115 1.401-0.396l-0.542-0.736c-0.175 0.129-0.445 0.218-0.859 0.218v0.457zM8.314 4.553l0.271 0.368c0.42-0.309 0.603-0.772 0.603-1.301h-0.914c0 0.306-0.095 0.464-0.231 0.565l0.271 0.368zM8.731 3.621h0.457c0-0.529-0.193-0.987-0.618-1.293l-0.533 0.743c0.145 0.104 0.237 0.26 0.237 0.55h0.457zM8.303 2.699l0.271-0.368c-0.391-0.288-0.918-0.396-1.511-0.396v0.914c0.504 0 0.803 0.096 0.969 0.218l0.271-0.368zM7.064 2.392v-0.457c-0.182 0-0.363 0.008-0.544 0.024l0.040 0.455 0.040 0.455c0.155-0.014 0.31-0.020 0.465-0.020v-0.457zM6.559 2.414l-0.041-0.455c-0.17 0.015-0.328 0.035-0.473 0.059l0.15 0.902c0.118-0.020 0.253-0.037 0.405-0.050l-0.041-0.455zM6.12 2.469h-0.457v2.392h0.914v-2.392h-0.457zM6.12 4.86v0.457h1.064v-0.914h-1.064v0.457zM15.413 7.647l-0.328-0.318-0.003 0.003-0.003 0.003 0.334 0.313zM14.601 8.196l0.165 0.426 0.004-0.002 0.004-0.002-0.173-0.423zM12.451 8.196l-0.173 0.423 0.004 0.002 0.004 0.002 0.165-0.426zM11.628 7.647l-0.334 0.313 0.003 0.003 0.003 0.003 0.328-0.318zM12.462 3.138l0.165 0.426 0.004-0.002 0.004-0.002-0.173-0.423zM14.59 3.138l-0.173 0.423 0.004 0.002 0.004 0.002 0.165-0.426zM15.413 3.686l-0.333 0.313 0.002 0.003 0.002 0.003 0.328-0.318zM15.939 4.542l-0.429 0.158 0.001 0.003 0.428-0.162zM12.473 6.989l-0.359 0.284 0.003 0.004 0.355-0.288zM14.579 6.989l0.355 0.288 0.003-0.004-0.359-0.284zM14.568 4.345l-0.362 0.279 0.004 0.005 0.004 0.004 0.355-0.289zM16.126 5.661h-0.457c0 0.371-0.055 0.693-0.158 0.972l0.858 0.317c0.146-0.395 0.215-0.826 0.215-1.289h-0.457zM15.939 6.791l-0.429-0.158c-0.105 0.283-0.248 0.512-0.426 0.696l0.657 0.636c0.275-0.284 0.483-0.625 0.627-1.015l-0.429-0.159zM15.413 7.647l-0.334-0.313c-0.171 0.182-0.385 0.329-0.651 0.438l0.346 0.846c0.377-0.154 0.704-0.373 0.972-0.659l-0.334-0.313zM14.601 8.196l-0.165-0.426c-0.262 0.101-0.564 0.156-0.91 0.156v0.914c0.443 0 0.858-0.070 1.24-0.217l-0.165-0.426zM13.526 8.382v-0.457c-0.347 0-0.648-0.054-0.911-0.156l-0.329 0.853c0.381 0.147 0.797 0.217 1.24 0.217v-0.457zM12.451 8.196l0.173-0.423c-0.267-0.109-0.488-0.258-0.668-0.444l-0.657 0.636c0.274 0.282 0.602 0.5 0.978 0.654l0.173-0.423zM11.628 7.647l0.334-0.313c-0.173-0.185-0.315-0.416-0.42-0.702l-0.858 0.317c0.143 0.387 0.345 0.726 0.611 1.010l0.334-0.313zM11.112 6.791l0.429-0.159c-0.103-0.278-0.158-0.6-0.158-0.972h-0.914c0 0.462 0.069 0.894 0.215 1.288l0.429-0.158zM10.926 5.661h0.457c0-0.371 0.055-0.693 0.158-0.972l-0.858-0.317c-0.146 0.395-0.215 0.826-0.215 1.289h0.457zM11.112 4.531l0.429 0.158c0.105-0.283 0.248-0.512 0.426-0.696l-0.657-0.636c-0.275 0.284-0.483 0.625-0.627 1.015l0.429 0.159zM11.639 3.675l0.328 0.318c0.178-0.184 0.395-0.327 0.659-0.429l-0.329-0.853c-0.38 0.147-0.711 0.362-0.986 0.646l0.328 0.318zM12.462 3.138l0.173 0.423c0.261-0.107 0.556-0.163 0.891-0.163v-0.914c-0.44 0-0.855 0.075-1.237 0.232l0.173 0.423zM13.526 2.94v0.457c0.335 0 0.63 0.057 0.891 0.163l0.346-0.846c-0.383-0.157-0.797-0.232-1.237-0.232v0.457zM14.59 3.138l-0.165 0.426c0.261 0.101 0.477 0.246 0.654 0.435l0.666-0.626c-0.276-0.293-0.608-0.514-0.991-0.662l-0.165 0.426zM15.413 3.686l-0.328 0.318c0.178 0.184 0.322 0.413 0.426 0.696l0.858-0.317c-0.144-0.39-0.352-0.731-0.627-1.015l-0.328 0.318zM15.939 4.542l-0.428 0.162c0.102 0.269 0.157 0.586 0.157 0.958h0.914c0-0.462-0.069-0.891-0.216-1.281l-0.428 0.162zM13.526 3.862v-0.457c-0.563 0-1.046 0.21-1.397 0.64l0.709 0.577c0.161-0.198 0.373-0.303 0.688-0.303v-0.457zM12.483 4.334l-0.355-0.289c-0.345 0.424-0.487 0.983-0.487 1.616h0.914c0-0.507 0.114-0.834 0.281-1.039l-0.354-0.289zM12.099 5.661h-0.457c0 0.631 0.137 1.188 0.472 1.611l0.717-0.567c-0.163-0.206-0.274-0.534-0.274-1.044h-0.457zM12.473 6.989l-0.355 0.288c0.349 0.431 0.84 0.63 1.409 0.63v-0.914c-0.338 0-0.55-0.108-0.698-0.291l-0.355 0.288zM13.526 7.45v0.457c0.569 0 1.060-0.199 1.409-0.63l-0.711-0.575c-0.148 0.183-0.36 0.291-0.698 0.291v0.457zM14.579 6.989l0.359 0.284c0.335-0.423 0.472-0.98 0.472-1.611h-0.914c0 0.51-0.112 0.838-0.274 1.044l0.359 0.284zM14.952 5.661h0.457c0-0.628-0.143-1.182-0.487-1.605l-0.709 0.577c0.168 0.206 0.281 0.529 0.281 1.028h0.457zM14.568 4.345l0.362-0.28c-0.344-0.446-0.832-0.66-1.404-0.66v0.914c0.32 0 0.528 0.107 0.681 0.305l0.362-0.279zM18.198 7.033l0.411-0.2-0.002-0.004-0.002-0.004-0.407 0.208zM16.76 3.269l-0.354-0.289-0.154 0.188 0.069 0.232 0.438-0.131zM17.024 3.072l0.193 0.414 0.011-0.005 0.011-0.006-0.215-0.403zM17.77 3.105l-0.282 0.359 0.008 0.006 0.009 0.006 0.266-0.372zM18.022 3.5l0.434-0.145-0.002-0.005-0.432 0.15zM18.637 5.255l-0.429 0.158 0.001 0.002 0.428-0.159zM19.339 7.033l-0.422 0.176 0.117 0.281h0.305v-0.457zM19.383 7.033v0.457h0.291l0.123-0.263-0.414-0.194zM19.712 6.21l-0.428-0.159-0.002 0.004-0.002 0.004 0.432 0.151zM20.359 4.147l0.442 0.117 0.001-0.002-0.442-0.115zM20.611 3.105l-0.204-0.409-0.195 0.097-0.047 0.212 0.446 0.099zM20.831 3.017l-0.12-0.441-0.006 0.002-0.006 0.002 0.131 0.438zM21.511 3.105l-0.27 0.369 0.008 0.006 0.009 0.006 0.254-0.38zM21.522 4.334l-0.443-0.115-0.001 0.006 0.444 0.109zM21.138 5.628l0.432 0.149 0.001-0.002-0.433-0.147zM19.975 8.338l0.398 0.226 0.002-0.003 0.002-0.003-0.401-0.22zM18.977 9.808l-0.341-0.304-0.004 0.004 0.345 0.3zM17.649 10.138l0.313-0.333-0.001-0.001-0.313 0.334zM17.43 9.721l-0.301-0.344-0.193 0.169 0.044 0.253 0.45-0.078zM18.626 8.349l-0.373-0.264-0.003 0.004-0.002 0.004 0.378 0.257zM18.944 7.834l0.405 0.211 0.257-0.493-0.534-0.157-0.129 0.439zM18.582 7.625l-0.313 0.333 0.006 0.005 0.006 0.005 0.301-0.344zM18.198 7.033l0.407-0.208c-0.174-0.34-0.391-0.834-0.652-1.487l-0.849 0.34c0.265 0.663 0.494 1.186 0.687 1.563l0.407-0.208zM17.528 5.508l0.424-0.17c-0.257-0.643-0.509-1.376-0.754-2.199l-0.876 0.261c0.252 0.844 0.512 1.604 0.782 2.277l0.424-0.17zM16.76 3.269l0.354 0.289c0.016-0.019 0.045-0.046 0.103-0.073l-0.387-0.829c-0.162 0.075-0.308 0.181-0.424 0.322l0.354 0.289zM17.024 3.072l0.215 0.403c0.044-0.023 0.087-0.034 0.136-0.034v-0.914c-0.199 0-0.39 0.048-0.566 0.142l0.215 0.403zM17.375 2.984v0.457c0.083 0 0.108 0.020 0.113 0.023l0.565-0.719c-0.2-0.158-0.439-0.218-0.677-0.218v0.457zM17.77 3.105l-0.266 0.372c-0.006-0.004 0.002-0 0.020 0.028s0.041 0.074 0.066 0.145l0.864-0.299c-0.080-0.23-0.205-0.465-0.419-0.617l-0.266 0.372zM18.022 3.5l-0.434 0.145c0.199 0.597 0.405 1.186 0.619 1.768l0.858-0.315c-0.21-0.573-0.414-1.154-0.61-1.742l-0.434 0.145zM18.637 5.255l-0.428 0.159c0.214 0.577 0.451 1.175 0.709 1.794l0.844-0.352c-0.254-0.609-0.486-1.196-0.696-1.761l-0.428 0.159zM19.339 7.033v0.457h0.044v-0.914h-0.044v0.457zM19.383 7.033l0.414 0.194c0.118-0.252 0.233-0.541 0.347-0.866l-0.863-0.301c-0.106 0.304-0.21 0.563-0.311 0.779l0.414 0.194zM19.712 6.21l0.428 0.159c0.12-0.323 0.236-0.663 0.348-1.021l-0.873-0.273c-0.107 0.344-0.218 0.669-0.332 0.975l0.428 0.159zM20.052 5.211l0.436 0.136c0.112-0.357 0.216-0.719 0.313-1.083l-0.884-0.234c-0.093 0.352-0.194 0.7-0.302 1.045l0.436 0.136zM20.359 4.147l0.442 0.115c0.096-0.37 0.182-0.723 0.256-1.058l-0.893-0.198c-0.072 0.323-0.155 0.665-0.248 1.026l0.442 0.115zM20.611 3.105l0.204 0.409c0.051-0.026 0.1-0.045 0.146-0.059l-0.263-0.876c-0.1 0.030-0.198 0.069-0.293 0.117l0.204 0.409zM20.831 3.017l0.12 0.441c0.034-0.009 0.083-0.017 0.154-0.017v-0.914c-0.134 0-0.267 0.014-0.395 0.049l0.12 0.441zM21.105 2.984v0.457c0.082 0 0.118 0.019 0.136 0.032l0.541-0.737c-0.202-0.148-0.436-0.209-0.676-0.209v0.457zM21.511 3.105l-0.254 0.38c-0.005-0.003-0.012-0.009-0.020-0.018s-0.013-0.018-0.017-0.026c-0.007-0.015-0.002-0.015-0.002 0.014h0.914c0-0.275-0.102-0.554-0.368-0.731l-0.254 0.38zM21.676 3.456h-0.457c0 0.128-0.038 0.373-0.139 0.763l0.885 0.229c0.104-0.4 0.168-0.74 0.168-0.992h-0.457zM21.522 4.334l-0.444-0.109c-0.091 0.372-0.215 0.791-0.373 1.257l0.866 0.293c0.164-0.485 0.296-0.929 0.395-1.332l-0.444-0.109zM21.138 5.628l-0.432-0.149c-0.157 0.457-0.336 0.923-0.537 1.396l0.842 0.357c0.209-0.492 0.395-0.977 0.56-1.456l-0.432-0.149zM20.589 7.055l-0.421-0.179c-0.2 0.472-0.398 0.885-0.594 1.242l0.801 0.44c0.214-0.389 0.425-0.831 0.634-1.325l-0.421-0.178zM19.975 8.338l-0.397-0.226c-0.359 0.631-0.673 1.090-0.942 1.392l0.683 0.608c0.331-0.371 0.682-0.892 1.055-1.549l-0.398-0.226zM18.977 9.808l-0.345-0.3c-0.264 0.303-0.426 0.348-0.489 0.348v0.914c0.464 0 0.857-0.292 1.179-0.662l-0.345-0.3zM18.143 10.313v-0.457c-0.113 0-0.157-0.030-0.18-0.051l-0.627 0.666c0.226 0.212 0.51 0.3 0.807 0.3v-0.457zM17.649 10.138l0.313-0.334c-0.040-0.037-0.068-0.085-0.082-0.162l-0.901 0.157c0.045 0.259 0.163 0.49 0.357 0.672l0.313-0.334zM17.43 9.721l0.301 0.344c0.13-0.114 0.268-0.249 0.414-0.402l-0.663-0.63c-0.132 0.139-0.25 0.253-0.354 0.344l0.301 0.344zM17.814 9.348l0.331 0.315c0.147-0.155 0.293-0.32 0.438-0.495l-0.705-0.582c-0.133 0.161-0.265 0.31-0.396 0.448l0.331 0.315zM18.231 8.876l0.352 0.291c0.148-0.179 0.288-0.366 0.421-0.561l-0.756-0.514c-0.116 0.171-0.24 0.335-0.369 0.493l0.352 0.291zM18.626 8.349l0.373 0.264c0.135-0.19 0.252-0.38 0.35-0.568l-0.811-0.423c-0.077 0.148-0.172 0.302-0.286 0.463l0.373 0.264zM18.944 7.834l0.129-0.439c-0.049-0.015-0.113-0.047-0.19-0.114l-0.602 0.688c0.157 0.137 0.335 0.244 0.534 0.303l0.129-0.439zM18.582 7.625l0.313-0.333c-0.054-0.050-0.152-0.185-0.286-0.459l-0.822 0.4c0.144 0.296 0.302 0.557 0.482 0.726l0.313-0.333zM25.681 7.252l0.269 0.37 0.188-0.137v-0.233h-0.457zM25.681 5.859h0.457v-0.506l-0.503 0.051 0.046 0.455zM24.485 5.979l-0.046-0.455-0.003 0 0.049 0.454zM23.728 6.21l0.25 0.383 0.006-0.004 0.006-0.004-0.261-0.375zM23.75 7.296l-0.277 0.364 0.005 0.004 0.005 0.003 0.267-0.371zM26.208 3.39l-0.273 0.367 0.004 0.003 0.269-0.37zM26.69 7.735l-0.349-0.295-0.002 0.003 0.351 0.293zM26.383 7.987l0.228 0.396 0.005-0.003 0.005-0.003-0.238-0.39zM22.938 7.976l-0.263 0.374 0.003 0.002 0.26-0.376zM22.806 5.639l-0.289-0.355-0.004 0.003 0.293 0.351zM25.681 5.014l0.046 0.455 0.411-0.041v-0.413h-0.457zM25.363 4.070l-0.266 0.372 0.003 0.002 0.003 0.002 0.26-0.376zM22.927 4.246l-0.286 0.357 0.225 0.18 0.259-0.125-0.199-0.412zM22.741 4.037l-0.395 0.23 0.004 0.008 0.005 0.007 0.386-0.245zM22.752 3.445l-0.354-0.289-0.008 0.010-0.008 0.011 0.37 0.269zM23.048 3.237l0.186 0.418 0.009-0.004 0.009-0.005-0.204-0.409zM23.75 3.017l0.075 0.451 0.006-0.001 0.006-0.001-0.087-0.449zM24.606 7.493v0.457c0.285 0 0.55-0.028 0.788-0.093l-0.238-0.883c-0.142 0.038-0.323 0.061-0.55 0.061v0.457zM25.275 7.417l0.119 0.441c0.202-0.054 0.405-0.126 0.556-0.236l-0.538-0.739c0-0-0.017 0.012-0.065 0.031-0.046 0.018-0.108 0.039-0.191 0.062l0.119 0.441zM25.681 7.252h0.457v-1.393h-0.914v1.393h0.457zM25.681 5.859l-0.046-0.455-1.196 0.121 0.092 0.91 1.196-0.121-0.046-0.455zM24.485 5.979l-0.049-0.454c-0.369 0.040-0.709 0.129-0.969 0.31l0.522 0.751c0.077-0.054 0.241-0.118 0.545-0.151l-0.049-0.454zM23.728 6.21l-0.25-0.383c-0.321 0.209-0.46 0.54-0.46 0.899h0.914c0-0.063 0.011-0.093 0.017-0.104 0.004-0.008 0.010-0.017 0.028-0.029l-0.25-0.383zM23.476 6.725h-0.457c0 0.376 0.152 0.704 0.455 0.934l0.553-0.728c-0.063-0.048-0.094-0.1-0.094-0.207h-0.457zM23.75 7.296l-0.267 0.371c0.299 0.215 0.701 0.284 1.123 0.284v-0.914c-0.354 0-0.522-0.063-0.589-0.111l-0.267 0.371zM24.584 2.94v0.457c0.616 0 1.051 0.136 1.351 0.359l0.546-0.733c-0.505-0.376-1.153-0.54-1.897-0.54v0.457zM26.208 3.39l-0.269 0.37c0.252 0.183 0.415 0.488 0.415 1.024h0.914c0-0.737-0.239-1.361-0.792-1.763l-0.269 0.37zM26.811 4.784h-0.457v2.556h0.914v-2.556h-0.457zM26.811 7.34h-0.457c0 0.098-0.023 0.112-0.013 0.1l0.698 0.591c0.171-0.203 0.229-0.452 0.229-0.69h-0.457zM26.69 7.735l-0.351-0.293c-0.032 0.039-0.091 0.092-0.194 0.155l0.477 0.78c0.16-0.098 0.306-0.213 0.42-0.35l-0.351-0.293zM26.383 7.987l-0.228-0.396c-0.145 0.083-0.349 0.166-0.625 0.24l0.237 0.883c0.324-0.087 0.609-0.195 0.845-0.331l-0.228-0.396zM25.648 8.272l-0.118-0.441c-0.252 0.068-0.559 0.105-0.924 0.105v0.914c0.425 0 0.813-0.043 1.161-0.136l-0.118-0.441zM24.606 8.393v-0.457c-0.657 0-1.109-0.13-1.408-0.336l-0.52 0.752c0.506 0.35 1.165 0.498 1.927 0.498v-0.457zM22.938 7.976l0.263-0.374c-0.257-0.181-0.398-0.442-0.398-0.855h-0.914c0 0.669 0.254 1.228 0.787 1.603l0.263-0.374zM22.346 6.747h0.457c0-0.378 0.115-0.606 0.296-0.757l-0.585-0.702c-0.433 0.361-0.625 0.872-0.625 1.459h0.457zM22.806 5.639l0.289 0.355c0.22-0.179 0.572-0.318 1.106-0.371l-0.091-0.91c-0.636 0.064-1.184 0.239-1.593 0.572l0.289 0.355zM24.156 5.168l0.046 0.455 1.525-0.154-0.092-0.91-1.525 0.154 0.046 0.455zM25.681 5.014h0.457v-0.241h-0.914v0.241h0.457zM25.681 4.773h0.457c0-0.43-0.149-0.825-0.516-1.078l-0.519 0.753c0.057 0.040 0.121 0.112 0.121 0.326h0.457zM25.363 4.070l0.266-0.372c-0.312-0.223-0.708-0.305-1.132-0.305v0.914c0.321 0 0.503 0.064 0.601 0.134l0.266-0.372zM24.496 3.851v-0.457c-0.335 0-0.661 0.046-0.975 0.14l0.261 0.876c0.227-0.067 0.464-0.102 0.715-0.102v-0.457zM23.651 3.972l-0.13-0.438c-0.29 0.086-0.555 0.186-0.793 0.301l0.398 0.823c0.186-0.090 0.404-0.173 0.656-0.248l-0.13-0.438zM22.927 4.246l0.286-0.357c-0.033-0.027-0.062-0.058-0.086-0.097l-0.771 0.491c0.078 0.122 0.173 0.229 0.287 0.32l0.286-0.357zM22.741 4.037l0.395-0.23c-0.010-0.017-0.015-0.033-0.015-0.055h-0.914c0 0.183 0.047 0.357 0.139 0.516l0.395-0.23zM22.664 3.752h0.457c0-0.027 0.003-0.040 0.004-0.044s0 0-0.004 0.006l-0.739-0.538c-0.128 0.176-0.175 0.38-0.175 0.576h0.457zM22.752 3.445l0.354 0.289c0.007-0.008 0.038-0.040 0.128-0.080l-0.371-0.835c-0.173 0.077-0.339 0.184-0.464 0.337l0.354 0.289zM23.048 3.237l0.204 0.409c0.158-0.079 0.347-0.14 0.573-0.177l-0.15-0.902c-0.301 0.050-0.58 0.136-0.831 0.261l0.204 0.409zM23.75 3.017l0.087 0.449c0.232-0.045 0.481-0.068 0.747-0.068v-0.914c-0.319 0-0.627 0.028-0.921 0.085l0.087 0.449zM28.355 1.108l-0.126-0.44-0.332 0.095v0.345h0.457zM29.507 8.207l0.16 0.428 0.297-0.111v-0.317h-0.457zM29.277 8.261l-0.070-0.452-0.021 0.003-0.020 0.005 0.111 0.443zM28.981 8.294v-0.457c-0.079 0-0.131-0.008-0.164-0.016s-0.035-0.015-0.026-0.007l-0.565 0.719c0.22 0.173 0.499 0.218 0.754 0.218v-0.457zM28.509 8.174l0.282-0.359c0.009 0.007 0.017 0.016 0.023 0.024s0.007 0.013 0.007 0.012c-0.001-0.003-0.009-0.026-0.009-0.082h-0.914c0 0.263 0.072 0.564 0.328 0.765l0.282-0.359zM28.355 7.768h0.457v-6.66h-0.914v6.66h0.457zM28.355 1.108l0.126 0.44c0.040-0.011 0.104-0.028 0.197-0.049l-0.206-0.891c-0.098 0.022-0.18 0.043-0.242 0.061l0.126 0.44zM28.575 1.053l0.103 0.445c0.058-0.013 0.125-0.021 0.204-0.021v-0.914c-0.14 0-0.277 0.014-0.41 0.045l0.103 0.445zM28.882 1.020v0.457c0.079 0 0.131 0.008 0.164 0.016s0.035 0.015 0.026 0.007l0.565-0.719c-0.22-0.173-0.499-0.218-0.754-0.218v0.457zM29.354 1.141l-0.282 0.359c-0.009-0.007-0.017-0.016-0.023-0.024s-0.007-0.013-0.007-0.012c0.001 0.003 0.009 0.026 0.009 0.082h0.914c0-0.263-0.072-0.564-0.328-0.765l-0.282 0.359zM29.507 1.547h-0.457v6.66h0.914v-6.66h-0.457zM29.507 8.207l-0.16-0.428c-0.018 0.007-0.061 0.019-0.139 0.031l0.070 0.452 0.070 0.452c0.111-0.017 0.222-0.041 0.321-0.079l-0.16-0.428zM29.277 8.261l-0.111-0.443c-0.045 0.011-0.105 0.019-0.185 0.019v0.914c0.139 0 0.276-0.014 0.407-0.047l-0.111-0.443zM8.049 13.659l-0.362-0.279-0.007 0.009-0.007 0.009 0.376 0.26zM7.808 13.868l-0.25 0.383 0.212 0.139 0.23-0.106-0.192-0.415zM7.15 13.517l-0.189 0.416 0.005 0.002 0.184-0.418zM5.339 13.517l-0.172-0.424-0.004 0.002 0.176 0.422zM4.648 13.999l-0.335-0.312-0.003 0.003-0.003 0.003 0.34 0.305zM7.885 17.883l0.245-0.386-0.256-0.163-0.25 0.173 0.26 0.376zM8.104 18.103l-0.376 0.26 0.007 0.009 0.007 0.009 0.362-0.279zM8.126 18.717l-0.38-0.254-0.008 0.011-0.007 0.012 0.395 0.23zM7.863 18.959l-0.232-0.394-0.007 0.004-0.007 0.004 0.245 0.386zM4.846 19.145l-0.156 0.43 0.003 0.001 0.003 0.001 0.149-0.432zM3.792 18.498l-0.319 0.327 0.004 0.004 0.315-0.331zM3.079 17.412l-0.427 0.164 0.002 0.004 0.002 0.004 0.423-0.172zM3.792 13.264l-0.319-0.327-0.004 0.004 0.323 0.323zM4.835 12.606l0.159 0.429 0.003-0.001 0.003-0.001-0.166-0.426zM6.941 12.463l-0.105 0.445 0.008 0.002 0.008 0.002 0.090-0.448zM7.588 12.672l-0.204 0.409 0.003 0.002 0.003 0.002 0.198-0.412zM8.005 12.979l-0.355 0.288 0.005 0.007 0.005 0.006 0.344-0.301zM8.159 13.33h-0.457c0 0.027-0.006 0.038-0.015 0.050l0.725 0.557c0.137-0.178 0.205-0.387 0.205-0.608h-0.457zM8.049 13.659l-0.376-0.26c-0.024 0.035-0.044 0.047-0.057 0.054l0.383 0.83c0.177-0.082 0.318-0.208 0.426-0.363l-0.376-0.26zM7.808 13.868l0.25-0.383c-0.215-0.14-0.457-0.269-0.724-0.387l-0.369 0.836c0.23 0.102 0.427 0.207 0.593 0.315l0.25-0.383zM7.15 13.517l0.189-0.416c-0.32-0.145-0.697-0.206-1.111-0.206v0.914c0.333 0 0.569 0.050 0.732 0.124l0.189-0.416zM6.228 13.352v-0.457c-0.375 0-0.73 0.064-1.060 0.198l0.343 0.847c0.211-0.085 0.448-0.131 0.717-0.131v-0.457zM5.339 13.517l-0.176-0.422c-0.324 0.135-0.609 0.334-0.85 0.593l0.669 0.623c0.154-0.165 0.33-0.288 0.532-0.372l-0.176-0.422zM4.648 13.999l-0.34-0.305c-0.237 0.264-0.415 0.582-0.541 0.944l0.863 0.301c0.093-0.267 0.215-0.475 0.359-0.635l-0.34-0.305zM4.198 14.789l-0.432-0.151c-0.13 0.373-0.19 0.787-0.19 1.237h0.914c0-0.37 0.050-0.679 0.139-0.936l-0.432-0.151zM4.034 15.876h-0.457c0 0.897 0.223 1.655 0.743 2.194l0.658-0.635c-0.299-0.31-0.486-0.802-0.486-1.559h-0.457zM4.648 17.752l-0.329 0.318c0.508 0.526 1.175 0.776 1.953 0.776v-0.914c-0.568 0-0.984-0.175-1.295-0.497l-0.329 0.318zM6.272 18.388v0.457c0.401 0 0.77-0.057 1.098-0.185l-0.331-0.852c-0.198 0.077-0.451 0.122-0.767 0.122v0.457zM7.204 18.234l0.166 0.426c0.29-0.113 0.55-0.245 0.775-0.401l-0.52-0.752c-0.155 0.107-0.349 0.209-0.586 0.301l0.166 0.426zM7.885 17.883l-0.245 0.386c0.019 0.012 0.051 0.039 0.089 0.094l0.752-0.52c-0.093-0.135-0.208-0.255-0.35-0.345l-0.245 0.386zM8.104 18.103l-0.362 0.279c0.009 0.012 0.015 0.023 0.015 0.050h0.914c0-0.221-0.068-0.43-0.205-0.608l-0.362 0.279zM8.214 18.432h-0.457c0 0.009-0.001 0.017-0.011 0.032l0.761 0.507c0.107-0.16 0.165-0.343 0.165-0.539h-0.457zM8.126 18.717l-0.395-0.23c0.001-0.002-0.017 0.029-0.1 0.078l0.464 0.788c0.165-0.097 0.323-0.227 0.426-0.405l-0.395-0.23zM7.863 18.959l-0.245-0.386c-0.111 0.070-0.285 0.147-0.54 0.221l0.254 0.878c0.3-0.087 0.565-0.193 0.777-0.328l-0.245-0.386zM7.204 19.233l-0.127-0.439c-0.222 0.064-0.527 0.103-0.926 0.103v0.914c0.449 0 0.847-0.042 1.18-0.139l-0.127-0.439zM6.151 19.354v-0.457c-0.422 0-0.807-0.063-1.156-0.183l-0.298 0.864c0.455 0.157 0.941 0.233 1.455 0.233v-0.457zM4.846 19.145l0.156-0.43c-0.345-0.126-0.642-0.309-0.894-0.549l-0.63 0.663c0.347 0.33 0.753 0.579 1.212 0.746l0.156-0.43zM3.792 18.498l0.319-0.327c-0.25-0.244-0.454-0.551-0.609-0.931l-0.847 0.345c0.197 0.483 0.468 0.9 0.817 1.241l0.319-0.327zM3.079 17.412l0.427-0.164c-0.144-0.376-0.222-0.83-0.222-1.372h-0.914c0 0.628 0.090 1.197 0.283 1.7l0.427-0.164zM2.827 15.876h0.457c0-0.524 0.081-0.969 0.231-1.344l-0.849-0.34c-0.201 0.503-0.296 1.067-0.296 1.684h0.457zM3.090 14.362l0.424 0.17c0.156-0.39 0.358-0.701 0.601-0.944l-0.647-0.646c-0.342 0.342-0.608 0.762-0.803 1.251l0.424 0.17zM3.792 13.264l0.319 0.327c0.254-0.248 0.547-0.433 0.882-0.557l-0.318-0.857c-0.455 0.168-0.857 0.422-1.203 0.76l0.319 0.327zM4.835 12.606l0.166 0.426c0.339-0.132 0.704-0.199 1.096-0.199v-0.914c-0.5 0-0.977 0.086-1.427 0.261l0.166 0.426zM6.096 12.376v0.457c0.287 0 0.533 0.027 0.74 0.076l0.209-0.89c-0.29-0.068-0.607-0.1-0.95-0.1v0.457zM6.941 12.463l-0.090 0.448c0.228 0.046 0.403 0.104 0.533 0.169l0.409-0.818c-0.222-0.111-0.479-0.191-0.762-0.248l-0.090 0.448zM7.588 12.672l-0.198 0.412c0.142 0.068 0.219 0.133 0.26 0.183l0.71-0.577c-0.15-0.184-0.35-0.324-0.574-0.431l-0.198 0.412zM8.005 12.979l-0.344 0.301c0.027 0.031 0.037 0.050 0.040 0.058 0.003 0.006 0 0.002 0-0.008h0.914c0-0.26-0.116-0.48-0.267-0.652l-0.344 0.301zM12.449 18.224l0.269 0.37 0.188-0.137v-0.233h-0.457zM12.449 16.83h0.457v-0.506l-0.503 0.051 0.046 0.455zM11.253 16.951l-0.046-0.455-0.004 0 0.049 0.454zM10.496 17.181l0.25 0.383 0.006-0.004 0.006-0.004-0.261-0.375zM10.518 18.267l-0.277 0.364 0.005 0.004 0.005 0.003 0.267-0.371zM12.975 14.362l-0.273 0.367 0.004 0.003 0.269-0.37zM13.458 18.706l-0.349-0.295-0.002 0.003 0.351 0.293zM13.151 18.959l0.228 0.396 0.005-0.003 0.005-0.003-0.238-0.39zM9.706 18.948l-0.263 0.374 0.003 0.002 0.26-0.376zM9.574 16.611l-0.289-0.355-0.004 0.003 0.293 0.351zM12.449 15.985l0.046 0.455 0.411-0.041v-0.413h-0.457zM12.131 15.042l-0.266 0.372 0.003 0.002 0.003 0.002 0.26-0.376zM9.695 15.217l-0.286 0.357 0.225 0.18 0.259-0.125-0.199-0.412zM9.508 15.009l-0.395 0.23 0.004 0.008 0.005 0.007 0.386-0.245zM9.519 14.416l-0.354-0.289-0.008 0.010-0.008 0.011 0.37 0.269zM9.816 14.208l0.186 0.418 0.009-0.004 0.009-0.005-0.204-0.409zM10.518 13.989l0.075 0.451 0.006-0.001 0.006-0.001-0.087-0.449zM11.374 18.465v0.457c0.285 0 0.55-0.028 0.788-0.093l-0.238-0.883c-0.142 0.038-0.323 0.061-0.55 0.061v0.457zM12.043 18.388l0.119 0.441c0.202-0.054 0.405-0.126 0.556-0.236l-0.538-0.739c0-0-0.017 0.012-0.065 0.031-0.046 0.018-0.108 0.039-0.191 0.062l0.119 0.441zM12.449 18.224h0.457v-1.393h-0.914v1.393h0.457zM12.449 16.83l-0.046-0.455-1.196 0.121 0.092 0.91 1.196-0.121-0.046-0.455zM11.253 16.951l-0.049-0.454c-0.369 0.040-0.709 0.129-0.969 0.31l0.522 0.751c0.077-0.054 0.241-0.118 0.545-0.151l-0.049-0.454zM10.496 17.181l-0.25-0.383c-0.321 0.209-0.46 0.54-0.46 0.899h0.914c0-0.063 0.011-0.093 0.017-0.104 0.004-0.008 0.010-0.017 0.028-0.029l-0.25-0.383zM10.244 17.697h-0.457c0 0.376 0.152 0.704 0.455 0.934l0.553-0.728c-0.063-0.047-0.094-0.1-0.094-0.207h-0.457zM10.518 18.267l-0.267 0.371c0.299 0.215 0.701 0.284 1.123 0.284v-0.914c-0.354 0-0.522-0.063-0.589-0.111l-0.267 0.371zM11.352 13.912v0.457c0.616 0 1.051 0.136 1.351 0.359l0.546-0.733c-0.505-0.377-1.153-0.54-1.897-0.54v0.457zM12.975 14.362l-0.269 0.37c0.252 0.183 0.415 0.488 0.415 1.024h0.914c0-0.737-0.239-1.361-0.792-1.763l-0.269 0.37zM13.579 15.755h-0.457v2.556h0.914v-2.556h-0.457zM13.579 18.311h-0.457c0 0.098-0.023 0.112-0.013 0.1l0.698 0.591c0.171-0.203 0.229-0.452 0.229-0.69h-0.457zM13.458 18.706l-0.351-0.293c-0.032 0.039-0.091 0.092-0.194 0.155l0.477 0.78c0.16-0.098 0.306-0.213 0.42-0.35l-0.351-0.293zM13.151 18.959l-0.228-0.396c-0.145 0.083-0.349 0.166-0.625 0.24l0.237 0.883c0.324-0.087 0.609-0.195 0.845-0.331l-0.228-0.396zM12.416 19.244l-0.118-0.442c-0.252 0.068-0.559 0.105-0.924 0.105v0.914c0.425 0 0.813-0.043 1.161-0.136l-0.118-0.442zM11.374 19.365v-0.457c-0.657 0-1.109-0.13-1.408-0.336l-0.52 0.752c0.506 0.35 1.165 0.498 1.928 0.498v-0.457zM9.706 18.948l0.263-0.374c-0.257-0.181-0.398-0.442-0.398-0.855h-0.914c0 0.669 0.254 1.228 0.787 1.603l0.263-0.374zM9.114 17.719h0.457c0-0.378 0.115-0.606 0.296-0.757l-0.585-0.702c-0.433 0.361-0.625 0.872-0.625 1.459h0.457zM9.574 16.611l0.289 0.355c0.22-0.179 0.572-0.318 1.106-0.371l-0.091-0.91c-0.636 0.064-1.184 0.239-1.593 0.572l0.289 0.355zM10.924 16.139l0.046 0.455 1.525-0.154-0.092-0.91-1.525 0.154 0.046 0.455zM12.449 15.985h0.457v-0.241h-0.914v0.241h0.457zM12.449 15.744h0.457c0-0.43-0.149-0.825-0.516-1.079l-0.519 0.753c0.057 0.040 0.121 0.112 0.121 0.326h0.457zM12.131 15.042l0.266-0.372c-0.312-0.223-0.708-0.305-1.132-0.305v0.914c0.321 0 0.503 0.064 0.601 0.134l0.266-0.372zM11.264 14.822v-0.457c-0.335 0-0.661 0.046-0.975 0.14l0.261 0.876c0.227-0.067 0.464-0.102 0.714-0.102v-0.457zM10.419 14.943l-0.13-0.438c-0.29 0.086-0.555 0.186-0.793 0.301l0.397 0.823c0.186-0.090 0.404-0.173 0.656-0.248l-0.13-0.438zM9.695 15.217l0.286-0.357c-0.033-0.027-0.062-0.058-0.086-0.097l-0.771 0.491c0.078 0.122 0.174 0.229 0.287 0.32l0.286-0.357zM9.508 15.009l0.395-0.23c-0.010-0.017-0.015-0.033-0.015-0.055h-0.914c0 0.183 0.047 0.357 0.139 0.516l0.395-0.23zM9.432 14.724h0.457c0-0.027 0.003-0.040 0.004-0.044s0 0-0.004 0.006l-0.739-0.538c-0.128 0.176-0.175 0.38-0.175 0.576h0.457zM9.519 14.416l0.354 0.289c0.007-0.008 0.038-0.040 0.128-0.080l-0.371-0.835c-0.173 0.077-0.339 0.184-0.464 0.337l0.354 0.289zM9.816 14.208l0.204 0.409c0.158-0.079 0.347-0.14 0.573-0.177l-0.15-0.902c-0.301 0.050-0.58 0.136-0.831 0.261l0.204 0.409zM10.518 13.989l0.087 0.449c0.232-0.045 0.481-0.068 0.747-0.068v-0.914c-0.319 0-0.627 0.028-0.921 0.085l0.087 0.449zM18.206 15.086l-0.296 0.348 0.003 0.003 0.003 0.003 0.29-0.353zM16.703 14.932l-0.14-0.435-0.005 0.002 0.145 0.434zM16.187 15.152l-0.22-0.401-0.237 0.13v0.27h0.457zM16.187 19.178l0.18 0.42 0.277-0.119v-0.301h-0.457zM15.968 19.233l-0.069-0.452-0.021 0.003-0.020 0.005 0.111 0.443zM15.474 14.405l-0.237-0.391-0.008 0.005-0.008 0.005 0.254 0.38zM19.062 14.394l-0.286 0.357 0.004 0.003 0.282-0.36zM19.665 19.178l0.18 0.42 0.277-0.119v-0.301h-0.457zM19.446 19.233l-0.070-0.452-0.017 0.003-0.017 0.004 0.103 0.445zM18.513 15.876h0.457c0-0.444-0.13-0.86-0.474-1.143l-0.58 0.706c0.065 0.053 0.14 0.164 0.14 0.437h0.457zM18.206 15.086l0.296-0.348c-0.304-0.259-0.692-0.361-1.108-0.361v0.914c0.271 0 0.424 0.066 0.515 0.143l0.296-0.348zM17.394 14.833v-0.457c-0.295 0-0.573 0.038-0.831 0.121l0.28 0.87c0.152-0.049 0.334-0.077 0.551-0.077v-0.457zM16.703 14.932l-0.145-0.434c-0.218 0.073-0.416 0.156-0.591 0.253l0.441 0.801c0.117-0.064 0.263-0.127 0.44-0.186l-0.145-0.434zM16.187 15.152h-0.457v4.027h0.914v-4.027h-0.457zM16.187 19.178l-0.18-0.42c0.003-0.001-0.003 0.002-0.024 0.007s-0.048 0.011-0.085 0.016l0.069 0.452 0.070 0.452c0.11-0.017 0.227-0.042 0.33-0.087l-0.18-0.42zM15.968 19.233l-0.111-0.443c-0.045 0.011-0.105 0.019-0.185 0.019v0.914c0.139 0 0.276-0.014 0.407-0.047l-0.111-0.443zM15.672 19.266v-0.457c-0.079 0-0.131-0.008-0.164-0.016s-0.035-0.015-0.026-0.007l-0.565 0.719c0.22 0.173 0.499 0.218 0.754 0.218v-0.457zM15.2 19.145l0.282-0.359c0.009 0.007 0.017 0.016 0.023 0.024s0.007 0.013 0.007 0.012c-0.001-0.003-0.009-0.026-0.009-0.082h-0.914c0 0.263 0.072 0.564 0.328 0.765l0.282-0.359zM15.046 18.739h0.457v-3.621h-0.914v3.621h0.457zM15.046 15.119h0.457c0-0.113 0.023-0.153 0.026-0.159l-0.769-0.494c-0.128 0.199-0.171 0.43-0.171 0.653h0.457zM15.145 14.713l0.385 0.247c0.019-0.029 0.072-0.090 0.198-0.174l-0.507-0.761c-0.181 0.121-0.347 0.265-0.46 0.44l0.385 0.247zM15.474 14.405l0.237 0.391c0.162-0.099 0.392-0.199 0.699-0.294l-0.272-0.873c-0.351 0.109-0.655 0.236-0.902 0.386l0.237 0.391zM16.275 14.065l0.136 0.437c0.277-0.086 0.603-0.133 0.983-0.133v-0.914c-0.454 0-0.874 0.056-1.255 0.174l0.136 0.437zM17.394 13.912v0.457c0.644 0 1.087 0.146 1.382 0.383l0.571-0.714c-0.509-0.407-1.179-0.583-1.953-0.583v0.457zM19.062 14.394l-0.282 0.36c0.263 0.206 0.428 0.534 0.428 1.077h0.914c0-0.744-0.238-1.374-0.779-1.797l-0.282 0.36zM19.665 15.832h-0.457v3.346h0.914v-3.346h-0.457zM19.665 19.178l-0.18-0.42c0.003-0.001-0.003 0.002-0.024 0.007s-0.048 0.011-0.085 0.016l0.070 0.452 0.070 0.452c0.11-0.017 0.227-0.042 0.33-0.087l-0.18-0.42zM19.446 19.233l-0.103-0.445c-0.058 0.013-0.125 0.021-0.204 0.021v0.914c0.14 0 0.277-0.014 0.41-0.045l-0.103-0.445zM19.139 19.266v-0.457c-0.079 0-0.131-0.008-0.164-0.016s-0.035-0.015-0.026-0.007l-0.565 0.719c0.22 0.173 0.499 0.218 0.754 0.218v-0.457zM18.667 19.145l0.282-0.359c0.009 0.007 0.017 0.016 0.023 0.024s0.007 0.013 0.007 0.012c-0.001-0.003-0.009-0.026-0.009-0.082h-0.914c0 0.263 0.072 0.564 0.328 0.765l0.282-0.359zM18.513 18.739h0.457v-2.864h-0.914v2.864h0.457zM24.093 13.989l-0.119 0.441 0.010 0.003 0.010 0.002 0.099-0.446zM24.609 14.164l-0.204 0.409 0.662 0.331v-0.74h-0.457zM24.609 12.079l-0.126-0.44-0.332 0.095v0.345h0.457zM25.662 18.651l0.376 0.26 0.004-0.006 0.004-0.007-0.384-0.247zM25.355 18.926l-0.244-0.387-0.003 0.002-0.003 0.002 0.25 0.383zM24.664 19.222l-0.131-0.438-0.003 0.001 0.134 0.437zM22.535 19.2l-0.139 0.436 0.004 0.001 0.004 0.001 0.131-0.438zM21.658 18.706l-0.313 0.333 0.003 0.003 0.003 0.003 0.308-0.338zM21.098 17.861l-0.427 0.164 0.001 0.003 0.426-0.167zM21.098 15.426l-0.425-0.168-0.002 0.005 0.427 0.163zM21.658 14.57l0.313 0.334 0.003-0.003 0.003-0.003-0.318-0.328zM22.469 14.076l0.145 0.434 0.006-0.002-0.151-0.432zM24.62 15.13h0.457v-0.249l-0.209-0.135-0.248 0.384zM23.007 14.932l-0.15-0.432-0.005 0.002 0.155 0.43zM22.524 15.261l0.331 0.315 0.004-0.004 0.004-0.004-0.339-0.307zM22.195 15.832l0.431 0.153 0.001-0.004-0.432-0.149zM22.502 18.004l-0.319 0.327 0.004 0.004 0.315-0.331zM24.214 18.355l0.131 0.438 0.007-0.002 0.007-0.002-0.145-0.434zM24.62 18.18l0.224 0.398 0.233-0.131v-0.267h-0.457zM23.479 13.912v0.457c0.184 0 0.348 0.021 0.496 0.061l0.238-0.883c-0.233-0.063-0.478-0.093-0.733-0.093v0.457zM24.093 13.989l-0.099 0.446c0.169 0.038 0.304 0.085 0.41 0.138l0.409-0.818c-0.186-0.093-0.395-0.163-0.621-0.213l-0.099 0.446zM24.609 14.164h0.457v-2.085h-0.914v2.085h0.457zM24.609 12.079l0.126 0.44c0.040-0.011 0.104-0.028 0.197-0.049l-0.206-0.891c-0.098 0.023-0.18 0.043-0.242 0.061l0.126 0.44zM24.828 12.025l0.103 0.445c0.058-0.013 0.125-0.021 0.204-0.021v-0.914c-0.14 0-0.277 0.014-0.41 0.045l0.103 0.445zM25.136 11.992v0.457c0.079 0 0.131 0.008 0.164 0.016s0.035 0.015 0.026 0.007l0.565-0.719c-0.22-0.173-0.499-0.218-0.754-0.218v0.457zM25.607 12.112l-0.282 0.359c-0.009-0.007-0.017-0.016-0.023-0.024s-0.007-0.013-0.007-0.012c0.001 0.003 0.009 0.026 0.009 0.082h0.914c0-0.263-0.072-0.564-0.328-0.765l-0.282 0.359zM25.761 12.518h-0.457v5.749h0.914v-5.749h-0.457zM25.761 18.267h-0.457c0 0.089-0.019 0.125-0.026 0.137l0.769 0.494c0.124-0.193 0.171-0.413 0.171-0.631h-0.457zM25.662 18.651l-0.376-0.26c-0.019 0.028-0.068 0.080-0.175 0.148l0.488 0.773c0.171-0.108 0.327-0.238 0.439-0.401l-0.376-0.26zM25.355 18.926l-0.25-0.383c-0.118 0.077-0.303 0.16-0.573 0.241l0.263 0.876c0.315-0.095 0.591-0.209 0.81-0.351l-0.25-0.383zM24.664 19.222l-0.134-0.437c-0.232 0.072-0.515 0.111-0.853 0.111v0.914c0.408 0 0.784-0.048 1.122-0.152l-0.134-0.437zM23.676 19.354v-0.457c-0.38 0-0.715-0.047-1.011-0.135l-0.261 0.876c0.392 0.117 0.817 0.173 1.272 0.173v-0.457zM22.535 19.2l0.139-0.436c-0.288-0.092-0.521-0.226-0.709-0.396l-0.615 0.676c0.295 0.268 0.647 0.463 1.046 0.591l0.139-0.436zM21.658 18.706l0.313-0.333c-0.188-0.176-0.338-0.399-0.447-0.678l-0.851 0.333c0.154 0.394 0.377 0.734 0.672 1.011l0.313-0.333zM21.098 17.861l0.427-0.163c-0.107-0.28-0.167-0.625-0.167-1.043h-0.914c0 0.503 0.072 0.963 0.228 1.37l0.427-0.164zM20.901 16.655h0.457c0-0.435 0.060-0.786 0.167-1.065l-0.854-0.327c-0.157 0.409-0.228 0.876-0.228 1.392h0.457zM21.098 15.426l0.425 0.168c0.119-0.299 0.27-0.525 0.447-0.691l-0.625-0.667c-0.291 0.273-0.513 0.618-0.672 1.021l0.425 0.168zM21.658 14.57l0.318 0.328c0.185-0.179 0.397-0.308 0.638-0.388l-0.289-0.867c-0.373 0.124-0.702 0.325-0.985 0.599l0.318 0.328zM22.469 14.076l0.151 0.432c0.263-0.092 0.548-0.139 0.859-0.139v-0.914c-0.406 0-0.794 0.062-1.16 0.19l0.151 0.432zM24.62 15.13l0.248-0.384c-0.16-0.104-0.341-0.188-0.537-0.256l-0.3 0.864c0.14 0.049 0.252 0.103 0.341 0.161l0.248-0.384zM24.181 14.921l0.15-0.432c-0.223-0.078-0.461-0.113-0.71-0.113v0.914c0.161 0 0.296 0.023 0.409 0.062l0.15-0.432zM23.621 14.833v-0.457c-0.266 0-0.522 0.040-0.764 0.124l0.299 0.864c0.138-0.048 0.292-0.074 0.465-0.074v-0.457zM23.007 14.932l-0.155-0.43c-0.258 0.093-0.481 0.247-0.667 0.453l0.678 0.613c0.092-0.102 0.191-0.167 0.299-0.206l-0.155-0.43zM22.524 15.261l-0.331-0.315c-0.193 0.203-0.333 0.454-0.43 0.737l0.865 0.297c0.064-0.186 0.143-0.315 0.228-0.404l-0.331-0.315zM22.195 15.832l-0.431-0.153c-0.103 0.29-0.147 0.623-0.147 0.987h0.914c0-0.295 0.036-0.518 0.094-0.681l-0.431-0.153zM22.074 16.666h-0.457c0 0.672 0.154 1.265 0.566 1.666l0.638-0.655c-0.159-0.155-0.29-0.454-0.29-1.011h-0.457zM22.502 18.004l-0.315 0.331c0.394 0.374 0.902 0.543 1.478 0.543v-0.914c-0.39 0-0.657-0.109-0.848-0.291l-0.315 0.331zM23.665 18.421v0.457c0.246 0 0.477-0.024 0.68-0.085l-0.263-0.876c-0.090 0.027-0.225 0.047-0.417 0.047v0.457zM24.214 18.355l0.145 0.434c0.176-0.059 0.339-0.128 0.485-0.211l-0.448-0.797c-0.087 0.049-0.195 0.096-0.326 0.14l0.145 0.434zM24.62 18.18h0.457v-3.050h-0.914v3.050h0.457zM28.269 18.004l0.411-0.2-0.002-0.004-0.002-0.004-0.407 0.208zM26.832 14.241l-0.354-0.289-0.154 0.188 0.069 0.232 0.438-0.131zM27.095 14.043l0.193 0.414 0.011-0.005 0.011-0.006-0.215-0.403zM27.841 14.076l-0.282 0.359 0.008 0.006 0.009 0.006 0.266-0.372zM28.094 14.471l0.434-0.145-0.002-0.005-0.432 0.15zM28.708 16.227l-0.429 0.158 0.001 0.002 0.428-0.159zM29.41 18.004l-0.422 0.176 0.117 0.281h0.305v-0.457zM29.454 18.004v0.457h0.291l0.123-0.263-0.414-0.194zM29.783 17.181l-0.428-0.159-0.002 0.004-0.002 0.004 0.432 0.151zM30.43 15.119l0.442 0.117 0.001-0.002-0.442-0.115zM30.683 14.076l-0.204-0.409-0.195 0.097-0.047 0.212 0.446 0.099zM30.902 13.989l-0.12-0.441-0.006 0.002-0.006 0.002 0.131 0.438zM31.582 14.076l-0.27 0.369 0.008 0.006 0.009 0.006 0.254-0.38zM31.593 15.305l-0.443-0.115-0.001 0.006 0.444 0.109zM31.209 16.6l0.432 0.149 0.001-0.002-0.433-0.147zM30.047 19.31l0.397 0.226 0.002-0.003 0.002-0.003-0.401-0.22zM29.048 20.78l-0.341-0.304-0.004 0.004 0.345 0.3zM27.721 21.109l0.313-0.333-0.001-0.001-0.313 0.334zM27.501 20.692l-0.301-0.344-0.193 0.169 0.044 0.253 0.45-0.078zM28.697 19.321l-0.373-0.264-0.003 0.004-0.002 0.004 0.378 0.257zM29.015 18.805l0.405 0.211 0.257-0.493-0.534-0.157-0.129 0.439zM28.653 18.597l-0.313 0.334 0.006 0.005 0.006 0.005 0.301-0.344zM28.269 18.004l0.407-0.208c-0.174-0.34-0.391-0.834-0.652-1.487l-0.849 0.34c0.265 0.663 0.494 1.186 0.686 1.563l0.407-0.208zM27.6 16.479l0.424-0.17c-0.257-0.643-0.509-1.376-0.754-2.199l-0.876 0.261c0.252 0.844 0.512 1.604 0.782 2.277l0.424-0.17zM26.832 14.241l0.354 0.289c0.016-0.019 0.045-0.046 0.103-0.073l-0.387-0.829c-0.162 0.075-0.308 0.181-0.424 0.322l0.354 0.289zM27.095 14.043l0.215 0.403c0.043-0.023 0.087-0.034 0.136-0.034v-0.914c-0.199 0-0.39 0.048-0.566 0.142l0.215 0.403zM27.446 13.956v0.457c0.083 0 0.108 0.020 0.113 0.023l0.565-0.719c-0.2-0.158-0.439-0.218-0.677-0.218v0.457zM27.841 14.076l-0.266 0.372c-0.006-0.004 0.002-0 0.020 0.028s0.041 0.074 0.066 0.145l0.864-0.299c-0.080-0.23-0.205-0.465-0.419-0.617l-0.266 0.372zM28.094 14.471l-0.434 0.145c0.199 0.597 0.405 1.186 0.619 1.768l0.858-0.315c-0.21-0.573-0.414-1.154-0.61-1.742l-0.434 0.145zM28.708 16.227l-0.428 0.159c0.214 0.577 0.451 1.175 0.709 1.794l0.844-0.352c-0.254-0.609-0.486-1.196-0.696-1.761l-0.428 0.159zM29.41 18.004v0.457h0.044v-0.914h-0.044v0.457zM29.454 18.004l0.414 0.194c0.118-0.252 0.233-0.541 0.347-0.866l-0.863-0.301c-0.106 0.304-0.21 0.563-0.311 0.779l0.414 0.194zM29.783 17.181l0.428 0.159c0.12-0.323 0.236-0.663 0.348-1.021l-0.873-0.273c-0.108 0.344-0.218 0.669-0.332 0.975l0.428 0.159zM30.123 16.183l0.436 0.136c0.112-0.357 0.216-0.719 0.313-1.083l-0.884-0.234c-0.093 0.352-0.194 0.7-0.302 1.045l0.436 0.136zM30.43 15.119l0.442 0.115c0.096-0.37 0.182-0.723 0.256-1.058l-0.893-0.198c-0.072 0.323-0.155 0.665-0.248 1.026l0.442 0.115zM30.683 14.076l0.204 0.409c0.051-0.026 0.1-0.045 0.146-0.059l-0.263-0.876c-0.1 0.030-0.198 0.069-0.292 0.117l0.204 0.409zM30.902 13.989l0.12 0.441c0.034-0.009 0.083-0.017 0.154-0.017v-0.914c-0.134 0-0.267 0.014-0.395 0.049l0.12 0.441zM31.177 13.956v0.457c0.082 0 0.118 0.019 0.136 0.032l0.541-0.737c-0.202-0.148-0.436-0.209-0.676-0.209v0.457zM31.582 14.076l-0.254 0.38c-0.005-0.003-0.012-0.009-0.020-0.018s-0.013-0.018-0.017-0.026c-0.007-0.015-0.002-0.015-0.002 0.014h0.914c0-0.275-0.102-0.554-0.368-0.731l-0.254 0.38zM31.747 14.427h-0.457c0 0.128-0.038 0.373-0.139 0.763l0.885 0.229c0.104-0.4 0.168-0.74 0.168-0.992h-0.457zM31.593 15.305l-0.444-0.109c-0.091 0.372-0.215 0.791-0.373 1.257l0.866 0.293c0.164-0.485 0.296-0.929 0.395-1.332l-0.444-0.109zM31.209 16.6l-0.432-0.149c-0.157 0.457-0.336 0.923-0.537 1.396l0.842 0.357c0.209-0.492 0.395-0.977 0.56-1.456l-0.432-0.149zM30.661 18.026l-0.421-0.179c-0.2 0.472-0.398 0.885-0.594 1.242l0.801 0.44c0.214-0.389 0.425-0.831 0.634-1.325l-0.421-0.178zM30.047 19.31l-0.398-0.226c-0.359 0.631-0.673 1.090-0.942 1.392l0.683 0.608c0.331-0.371 0.682-0.892 1.055-1.549l-0.397-0.226zM29.048 20.78l-0.345-0.3c-0.264 0.303-0.426 0.348-0.489 0.348v0.914c0.464 0 0.857-0.292 1.179-0.662l-0.345-0.3zM28.214 21.285v-0.457c-0.113 0-0.157-0.029-0.18-0.051l-0.627 0.666c0.226 0.212 0.51 0.3 0.807 0.3v-0.457zM27.721 21.109l0.313-0.334c-0.040-0.037-0.068-0.085-0.082-0.162l-0.901 0.157c0.045 0.259 0.163 0.49 0.357 0.672l0.313-0.334zM27.501 20.692l0.301 0.344c0.13-0.114 0.268-0.249 0.414-0.402l-0.663-0.63c-0.132 0.139-0.25 0.253-0.354 0.344l0.301 0.344zM27.885 20.319l0.331 0.315c0.147-0.154 0.293-0.32 0.438-0.495l-0.705-0.582c-0.133 0.161-0.265 0.31-0.396 0.448l0.331 0.315zM28.302 19.847l0.352 0.291c0.148-0.179 0.288-0.366 0.421-0.561l-0.756-0.514c-0.116 0.171-0.24 0.335-0.369 0.493l0.352 0.291zM28.697 19.321l0.373 0.264c0.135-0.19 0.252-0.38 0.35-0.568l-0.811-0.423c-0.077 0.148-0.172 0.302-0.286 0.463l0.373 0.264zM29.015 18.805l0.129-0.439c-0.049-0.015-0.113-0.047-0.19-0.114l-0.602 0.688c0.157 0.137 0.335 0.244 0.534 0.303l0.129-0.439zM28.653 18.597l0.313-0.334c-0.054-0.050-0.152-0.185-0.286-0.459l-0.822 0.4c0.144 0.296 0.302 0.557 0.482 0.726l0.313-0.334zM8.844 28.46l0.301 0.344 0.081-0.071 0.041-0.099-0.423-0.174zM7.845 28.581l-0.193 0.414 0.016 0.008 0.017 0.006 0.161-0.428zM7.615 28.35l0.42-0.18-0.001-0.002-0.419 0.182zM6.737 26.288l-0.424 0.171 0.002 0.004 0.422-0.175zM6.156 24.784l0.43-0.156-0.109-0.301h-0.32v0.457zM6.101 24.784v-0.457h-0.438l-0.019 0.438 0.457 0.019zM6.035 26.222l-0.457-0.023-0 0.004-0 0.004 0.457 0.015zM5.903 28.767l-0.456-0.031-0 0.008 0.457 0.023zM5.827 30.16l0.16 0.428 0.278-0.104 0.017-0.297-0.456-0.027zM5.596 30.215l-0.070-0.452-0.021 0.003-0.020 0.005 0.111 0.443zM4.729 29.261l-0.456-0.028-0 0.007-0 0.007 0.457 0.014zM4.773 28.405l-0.456-0.030-0 0.005-0 0.005 0.457 0.020zM4.839 27.297l-0.456-0.033-0 0.004-0 0.004 0.457 0.025zM4.927 26.079l0.456 0.033 0-0.001-0.456-0.032zM5.015 24.861l0.456 0.034 0-0.001-0.456-0.033zM5.102 23.753l-0.323-0.323-0.118 0.118-0.014 0.166 0.455 0.040zM5.388 23.567l-0.196-0.413-0.004 0.002-0.004 0.002 0.204 0.409zM6.452 23.599l-0.244 0.387 0.007 0.005 0.008 0.004 0.229-0.396zM6.781 23.973l0.416-0.19-0.002-0.004-0.002-0.004-0.412 0.197zM7.143 24.806l-0.422 0.175 0.002 0.004 0.421-0.179zM7.516 25.706l-0.424 0.172 0.001 0.004 0.422-0.175zM8.218 27.45l-0.422 0.176 0.117 0.281h0.305v-0.457zM8.273 27.45v0.457h0.315l0.112-0.295-0.427-0.162zM8.69 26.364l-0.423-0.173-0.002 0.004-0.001 0.004 0.426 0.165zM9.107 25.333l-0.421-0.178-0.002 0.004-0.002 0.004 0.424 0.17zM9.491 24.4l-0.421-0.179-0.002 0.004-0.002 0.005 0.424 0.17zM9.831 23.61l-0.189-0.416-0.159 0.073-0.070 0.16 0.419 0.183zM11.027 23.578l-0.242 0.388 0.005 0.003 0.005 0.003 0.232-0.394zM11.268 23.896l0.446-0.099-0.002-0.009-0.002-0.009-0.442 0.116zM11.367 24.554l-0.454 0.054 0 0.001 0.454-0.055zM11.587 26.858l-0.456 0.037 0 0.001 0.456-0.038zM11.685 28.142l-0.456 0.032 0 0.001 0.456-0.033zM11.762 29.283l-0.456 0.029 0 0.001 0.456-0.029zM11.806 30.095l0.245 0.386 0.221-0.141-0.010-0.262-0.457 0.017zM11.543 30.204l-0.103-0.445-0.021 0.005-0.021 0.007 0.145 0.434zM10.819 30.149l-0.235 0.392 0.005 0.003 0.006 0.003 0.224-0.398zM10.632 29.776l-0.456 0.027 0 0.005 0 0.005 0.456-0.036zM10.544 28.306l-0.457 0.021 0 0.003 0 0.003 0.456-0.028zM10.413 25.739l-0.457 0.018 0 0.005 0 0.005 0.456-0.027zM10.369 24.806l0.456-0.026-0.025-0.431h-0.432v0.457zM10.325 24.806v-0.457h-0.318l-0.111 0.298 0.428 0.16zM9.754 26.233l-0.422-0.176-0.002 0.005 0.424 0.172zM8.844 28.46l-0.301-0.344c0-0-0.001 0.001-0.005 0.004s-0.009 0.006-0.017 0.010c-0.016 0.009-0.039 0.019-0.072 0.031l0.308 0.861c0.136-0.049 0.273-0.117 0.389-0.218l-0.301-0.344zM8.602 28.591l-0.154-0.43c-0.044 0.016-0.107 0.028-0.197 0.028v0.914c0.173 0 0.344-0.024 0.505-0.081l-0.154-0.43zM8.251 28.646v-0.457c-0.111 0-0.19-0.016-0.245-0.037l-0.321 0.856c0.179 0.067 0.37 0.095 0.566 0.095v-0.457zM7.845 28.581l0.193-0.414c-0.006-0.003-0.010-0.005-0.011-0.006s-0.001-0.001 0.001 0.001 0.003 0.003 0.004 0.006 0.002 0.003 0.002 0.003l-0.84 0.36c0.092 0.215 0.255 0.37 0.457 0.465l0.193-0.414zM7.615 28.35l0.419-0.182c-0.336-0.774-0.627-1.459-0.875-2.056l-0.845 0.35c0.25 0.603 0.543 1.293 0.881 2.070l0.419-0.182zM6.737 26.288l0.424-0.171c-0.24-0.597-0.432-1.093-0.576-1.489l-0.859 0.312c0.149 0.409 0.345 0.915 0.587 1.518l0.424-0.171zM6.156 24.784v-0.457h-0.055v0.914h0.055v-0.457zM6.101 24.784l-0.457-0.019c-0.022 0.518-0.044 0.996-0.066 1.434l0.913 0.046c0.022-0.44 0.044-0.921 0.066-1.441l-0.457-0.019zM6.035 26.222l-0.457-0.015c-0.015 0.429-0.033 0.85-0.054 1.264l0.913 0.048c0.022-0.42 0.040-0.847 0.055-1.281l-0.457-0.015zM5.98 27.494l-0.457-0.024c-0.022 0.415-0.047 0.836-0.076 1.266l0.912 0.062c0.029-0.434 0.055-0.86 0.077-1.28l-0.457-0.024zM5.903 28.767l-0.457-0.023c-0.022 0.43-0.047 0.893-0.077 1.39l0.913 0.054c0.029-0.498 0.055-0.964 0.077-1.397l-0.457-0.023zM5.827 30.16l-0.161-0.428c-0.018 0.007-0.061 0.019-0.139 0.031l0.070 0.452 0.069 0.452c0.111-0.017 0.222-0.041 0.321-0.079l-0.16-0.428zM5.596 30.215l-0.111-0.443c-0.047 0.012-0.105 0.019-0.174 0.019v0.914c0.135 0 0.268-0.014 0.396-0.047l-0.111-0.443zM5.311 30.248v-0.457c-0.069 0-0.114-0.007-0.139-0.014s-0.026-0.011-0.016-0.004c0.011 0.009 0.020 0.022 0.023 0.030 0.002 0.006-0.003-0.004-0.003-0.038h-0.914c0 0.259 0.084 0.527 0.316 0.716 0.215 0.175 0.485 0.223 0.733 0.223v-0.457zM4.718 29.765h0.457c0-0.087 0.003-0.249 0.011-0.491l-0.914-0.028c-0.007 0.241-0.011 0.416-0.011 0.519h0.457zM4.729 29.261l0.456 0.028c0.015-0.245 0.030-0.532 0.044-0.863l-0.913-0.041c-0.015 0.328-0.029 0.61-0.043 0.848l0.456 0.028zM4.773 28.405l0.456 0.030c0.022-0.338 0.044-0.709 0.066-1.113l-0.913-0.050c-0.022 0.401-0.044 0.769-0.066 1.103l0.456 0.030zM4.839 27.297l0.456 0.033c0.029-0.402 0.059-0.809 0.088-1.218l-0.912-0.065c-0.029 0.409-0.058 0.815-0.088 1.217l0.456 0.033zM4.927 26.079l0.456 0.032c0.029-0.416 0.058-0.822 0.088-1.216l-0.912-0.068c-0.029 0.396-0.059 0.802-0.088 1.22l0.456 0.032zM5.015 24.861l0.456 0.033c0.029-0.401 0.058-0.768 0.087-1.102l-0.911-0.079c-0.029 0.339-0.059 0.71-0.088 1.115l0.456 0.033zM5.102 23.753l0.323 0.323c-0 0 0.003-0.003 0.010-0.008s0.018-0.013 0.032-0.023c0.029-0.019 0.070-0.043 0.124-0.070l-0.409-0.818c-0.147 0.073-0.294 0.162-0.404 0.272l0.323 0.323zM5.388 23.567l0.196 0.413c0.063-0.030 0.161-0.055 0.309-0.055v-0.914c-0.247 0-0.485 0.041-0.7 0.143l0.196 0.413zM5.892 23.468v0.457c0.183 0 0.274 0.035 0.315 0.061l0.488-0.773c-0.237-0.15-0.518-0.202-0.804-0.202v0.457zM6.452 23.599l-0.229 0.396c0.047 0.027 0.098 0.076 0.146 0.175l0.825-0.395c-0.114-0.238-0.282-0.438-0.513-0.571l-0.229 0.396zM6.781 23.973l-0.416 0.19c0.114 0.25 0.233 0.523 0.356 0.819l0.845-0.35c-0.126-0.304-0.249-0.587-0.369-0.849l-0.416 0.19zM7.143 24.806l-0.421 0.179c0.123 0.29 0.247 0.588 0.37 0.892l0.848-0.343c-0.125-0.31-0.251-0.612-0.376-0.907l-0.421 0.179zM7.516 25.706l-0.422 0.175c0.123 0.297 0.243 0.594 0.359 0.891l0.852-0.332c-0.118-0.303-0.24-0.606-0.366-0.909l-0.422 0.175zM7.878 26.606l-0.426 0.166c0.118 0.303 0.233 0.588 0.344 0.854l0.844-0.352c-0.108-0.26-0.22-0.538-0.336-0.835l-0.426 0.166zM8.218 27.45v0.457h0.055v-0.914h-0.055v0.457zM8.273 27.45l0.427 0.162c0.139-0.365 0.277-0.726 0.416-1.083l-0.852-0.331c-0.139 0.359-0.279 0.722-0.418 1.089l0.427 0.162zM8.69 26.364l0.423 0.173c0.147-0.359 0.286-0.704 0.418-1.034l-0.849-0.34c-0.131 0.328-0.27 0.671-0.416 1.028l0.423 0.173zM9.107 25.333l0.421 0.178c0.14-0.331 0.269-0.645 0.387-0.941l-0.849-0.34c-0.116 0.29-0.243 0.598-0.381 0.925l0.421 0.178zM9.491 24.4l0.421 0.179c0.124-0.291 0.237-0.553 0.338-0.785l-0.838-0.366c-0.103 0.236-0.217 0.501-0.342 0.794l0.421 0.179zM9.831 23.61l0.189 0.416c0.048-0.022 0.119-0.047 0.218-0.071l-0.222-0.887c-0.135 0.034-0.262 0.075-0.375 0.126l0.189 0.416zM10.127 23.512l0.111 0.443c0.080-0.020 0.163-0.030 0.251-0.030v-0.914c-0.161 0-0.319 0.019-0.473 0.058l0.111 0.443zM10.489 23.468v0.457c0.099 0 0.172 0.008 0.224 0.018s0.071 0.022 0.071 0.022l0.485-0.775c-0.226-0.141-0.509-0.179-0.78-0.179v0.457zM11.027 23.578l-0.232 0.394c0.015 0.009 0.020 0.015 0.021 0.017s0.006 0.008 0.010 0.024l0.884-0.233c-0.067-0.256-0.224-0.462-0.452-0.596l-0.232 0.394zM11.268 23.896l-0.446 0.099c0.024 0.107 0.055 0.307 0.091 0.613l0.908-0.108c-0.037-0.308-0.072-0.547-0.106-0.703l-0.446 0.099zM11.367 24.554l-0.454 0.055c0.036 0.294 0.072 0.637 0.108 1.029l0.91-0.084c-0.037-0.398-0.074-0.75-0.111-1.055l-0.454 0.055zM11.477 25.596l-0.455 0.042c0.036 0.393 0.073 0.812 0.109 1.257l0.911-0.075c-0.037-0.448-0.073-0.87-0.11-1.267l-0.455 0.042zM11.587 26.858l-0.456 0.038c0.036 0.437 0.069 0.863 0.098 1.278l0.912-0.064c-0.029-0.419-0.063-0.849-0.099-1.29l-0.456 0.038zM11.685 28.142l-0.456 0.033c0.029 0.409 0.055 0.787 0.077 1.137l0.912-0.057c-0.022-0.353-0.048-0.734-0.077-1.145l-0.456 0.033zM11.762 29.283l-0.456 0.029c0.022 0.342 0.036 0.608 0.043 0.8l0.914-0.034c-0.008-0.203-0.023-0.479-0.045-0.824l-0.456 0.029zM11.806 30.095l-0.245-0.386c-0.036 0.023-0.075 0.039-0.121 0.050l0.206 0.891c0.145-0.033 0.281-0.090 0.406-0.169l-0.245-0.386zM11.543 30.204l-0.145-0.434c-0.028 0.009-0.083 0.020-0.174 0.020v0.914c0.158 0 0.315-0.018 0.463-0.067l-0.145-0.434zM11.225 30.248v-0.457c-0.087 0-0.143-0.018-0.182-0.040l-0.448 0.797c0.195 0.11 0.409 0.157 0.63 0.157v-0.457zM10.819 30.149l0.235-0.392c0.011 0.007 0.022 0.015 0.031 0.025s0.013 0.017 0.014 0.020c0.001 0.003-0.001-0-0.003-0.011s-0.006-0.027-0.008-0.052l-0.911 0.073c0.021 0.262 0.122 0.557 0.407 0.729l0.235-0.392zM10.632 29.776l0.456-0.027c-0.029-0.498-0.059-0.988-0.088-1.471l-0.913 0.055c0.029 0.482 0.058 0.972 0.088 1.469l0.456-0.027zM10.544 28.306l0.457-0.021c-0.022-0.483-0.044-0.941-0.066-1.374l-0.913 0.046c0.022 0.431 0.044 0.887 0.066 1.369l0.457-0.021zM10.478 26.935l0.457-0.023c-0.022-0.433-0.044-0.833-0.066-1.2l-0.913 0.055c0.022 0.364 0.044 0.761 0.066 1.192l0.457-0.023zM10.413 25.739l0.457-0.018c-0.015-0.367-0.029-0.681-0.044-0.94l-0.913 0.052c0.014 0.253 0.029 0.561 0.043 0.925l0.457-0.018zM10.369 24.806v-0.457h-0.044v0.914h0.044v-0.457zM10.325 24.806l-0.428-0.16c-0.136 0.365-0.324 0.835-0.564 1.41l0.844 0.352c0.242-0.581 0.435-1.062 0.577-1.443l-0.428-0.16zM9.754 26.233l-0.424-0.172c-0.234 0.577-0.537 1.318-0.91 2.225l0.846 0.348c0.373-0.907 0.677-1.651 0.912-2.23l-0.424-0.172zM16.306 29.195l0.269 0.37 0.188-0.137v-0.233h-0.457zM16.306 27.802h0.457v-0.506l-0.503 0.051 0.046 0.455zM15.11 27.922l-0.046-0.455-0.004 0 0.049 0.454zM14.353 28.153l0.25 0.383 0.006-0.004 0.006-0.004-0.261-0.375zM14.375 29.239l-0.277 0.364 0.005 0.004 0.005 0.003 0.267-0.371zM16.833 25.333l-0.273 0.367 0.004 0.003 0.269-0.37zM17.315 29.678l-0.349-0.295-0.002 0.003 0.351 0.293zM17.008 29.93l0.228 0.396 0.005-0.003 0.005-0.003-0.238-0.39zM13.563 29.919l-0.263 0.374 0.003 0.002 0.26-0.376zM13.431 27.582l-0.289-0.355-0.004 0.003 0.293 0.351zM16.306 26.957l0.046 0.455 0.411-0.041v-0.413h-0.457zM15.988 26.013l-0.266 0.372 0.003 0.002 0.003 0.002 0.26-0.376zM13.552 26.189l-0.286 0.357 0.225 0.18 0.259-0.125-0.199-0.412zM13.366 25.98l-0.395 0.23 0.004 0.008 0.005 0.007 0.386-0.245zM13.377 25.388l-0.354-0.289-0.008 0.010-0.008 0.011 0.37 0.269zM13.673 25.179l0.186 0.418 0.009-0.004 0.009-0.005-0.204-0.409zM14.375 24.96l0.075 0.451 0.006-0.001 0.006-0.001-0.087-0.449zM15.231 29.436v0.457c0.285 0 0.55-0.028 0.788-0.093l-0.238-0.883c-0.142 0.038-0.323 0.061-0.55 0.061v0.457zM15.9 29.36l0.119 0.441c0.202-0.054 0.405-0.126 0.556-0.236l-0.538-0.739c0-0-0.017 0.012-0.065 0.031-0.046 0.018-0.108 0.039-0.191 0.062l0.119 0.441zM16.306 29.195h0.457v-1.393h-0.914v1.393h0.457zM16.306 27.802l-0.046-0.455-1.196 0.121 0.092 0.91 1.196-0.121-0.046-0.455zM15.11 27.922l-0.049-0.454c-0.369 0.040-0.709 0.129-0.969 0.31l0.522 0.751c0.077-0.054 0.241-0.118 0.545-0.151l-0.049-0.454zM14.353 28.153l-0.25-0.383c-0.321 0.209-0.46 0.54-0.46 0.899h0.914c0-0.063 0.011-0.093 0.017-0.104 0.004-0.008 0.010-0.017 0.028-0.029l-0.25-0.383zM14.101 28.668h-0.457c0 0.376 0.152 0.704 0.455 0.934l0.553-0.728c-0.063-0.047-0.094-0.1-0.094-0.207h-0.457zM14.375 29.239l-0.267 0.371c0.299 0.215 0.701 0.284 1.123 0.284v-0.914c-0.354 0-0.522-0.063-0.589-0.111l-0.267 0.371zM15.209 24.883v0.457c0.616 0 1.051 0.136 1.351 0.359l0.546-0.733c-0.505-0.377-1.153-0.54-1.897-0.54v0.457zM16.833 25.333l-0.269 0.37c0.252 0.183 0.415 0.488 0.415 1.024h0.914c0-0.737-0.239-1.361-0.792-1.763l-0.269 0.37zM17.436 26.726h-0.457v2.556h0.914v-2.556h-0.457zM17.436 29.283h-0.457c0 0.098-0.023 0.112-0.013 0.1l0.698 0.591c0.171-0.203 0.229-0.452 0.229-0.69h-0.457zM17.315 29.678l-0.351-0.293c-0.032 0.039-0.091 0.092-0.194 0.155l0.477 0.78c0.16-0.098 0.306-0.213 0.42-0.35l-0.351-0.293zM17.008 29.93l-0.228-0.396c-0.145 0.083-0.349 0.166-0.625 0.24l0.237 0.883c0.324-0.087 0.609-0.195 0.845-0.331l-0.228-0.396zM16.273 30.215l-0.118-0.442c-0.252 0.068-0.559 0.105-0.924 0.105v0.914c0.425 0 0.813-0.043 1.161-0.136l-0.118-0.442zM15.231 30.336v-0.457c-0.657 0-1.109-0.13-1.408-0.336l-0.52 0.752c0.506 0.35 1.165 0.498 1.928 0.498v-0.457zM13.563 29.919l0.263-0.374c-0.257-0.181-0.398-0.442-0.398-0.855h-0.914c0 0.669 0.254 1.228 0.787 1.603l0.263-0.374zM12.971 28.69h0.457c0-0.378 0.115-0.606 0.296-0.757l-0.585-0.702c-0.433 0.361-0.625 0.872-0.625 1.459h0.457zM13.431 27.582l0.289 0.355c0.22-0.179 0.572-0.318 1.106-0.371l-0.091-0.91c-0.636 0.064-1.184 0.239-1.593 0.572l0.289 0.355zM14.781 27.11l0.046 0.455 1.525-0.154-0.092-0.91-1.525 0.154 0.046 0.455zM16.306 26.957h0.457v-0.241h-0.914v0.241h0.457zM16.306 26.715h0.457c0-0.43-0.149-0.825-0.516-1.078l-0.519 0.753c0.057 0.040 0.121 0.112 0.121 0.326h0.457zM15.988 26.013l0.266-0.372c-0.312-0.223-0.708-0.305-1.132-0.305v0.914c0.321 0 0.503 0.064 0.601 0.134l0.266-0.372zM15.121 25.794v-0.457c-0.335 0-0.661 0.046-0.975 0.14l0.261 0.876c0.227-0.067 0.464-0.102 0.714-0.102v-0.457zM14.276 25.914l-0.13-0.438c-0.29 0.086-0.555 0.186-0.793 0.301l0.397 0.823c0.186-0.090 0.404-0.173 0.656-0.248l-0.13-0.438zM13.552 26.189l0.286-0.357c-0.033-0.026-0.062-0.058-0.086-0.097l-0.771 0.491c0.078 0.122 0.174 0.23 0.287 0.32l0.286-0.357zM13.366 25.98l0.395-0.23c-0.010-0.017-0.015-0.033-0.015-0.055h-0.914c0 0.183 0.047 0.357 0.139 0.516l0.395-0.23zM13.289 25.695h0.457c0-0.027 0.003-0.040 0.004-0.044s0 0-0.004 0.006l-0.739-0.538c-0.128 0.176-0.175 0.38-0.175 0.576h0.457zM13.377 25.388l0.354 0.289c0.007-0.008 0.038-0.040 0.128-0.080l-0.371-0.835c-0.173 0.077-0.339 0.184-0.464 0.337l0.354 0.289zM13.673 25.179l0.204 0.409c0.158-0.079 0.347-0.14 0.573-0.177l-0.15-0.902c-0.301 0.050-0.58 0.136-0.831 0.262l0.204 0.409zM14.375 24.96l0.087 0.449c0.232-0.045 0.481-0.068 0.747-0.068v-0.914c-0.319 0-0.627 0.028-0.921 0.085l0.087 0.449zM22.063 26.057l-0.296 0.348 0.003 0.003 0.003 0.003 0.29-0.353zM20.56 25.904l-0.14-0.435-0.005 0.002 0.145 0.434zM20.044 26.123l-0.22-0.401-0.237 0.13v0.27h0.457zM20.044 30.149l0.18 0.42 0.277-0.119v-0.301h-0.457zM19.825 30.204l-0.070-0.452-0.021 0.003-0.020 0.005 0.111 0.443zM19.331 25.377l-0.237-0.391-0.008 0.005-0.008 0.005 0.254 0.38zM22.919 25.366l-0.286 0.357 0.004 0.003 0.282-0.36zM23.522 30.149l0.18 0.42 0.277-0.119v-0.301h-0.457zM23.303 30.204l-0.070-0.452-0.017 0.003-0.017 0.004 0.103 0.445zM22.37 26.847h0.457c0-0.444-0.13-0.86-0.474-1.143l-0.58 0.706c0.065 0.053 0.14 0.164 0.14 0.437h0.457zM22.063 26.057l0.296-0.348c-0.304-0.259-0.692-0.361-1.108-0.361v0.914c0.271 0 0.424 0.066 0.515 0.143l0.296-0.348zM21.251 25.805v-0.457c-0.295 0-0.573 0.038-0.831 0.121l0.28 0.87c0.152-0.049 0.334-0.077 0.551-0.077v-0.457zM20.56 25.904l-0.145-0.434c-0.218 0.073-0.416 0.156-0.591 0.253l0.441 0.801c0.117-0.064 0.263-0.127 0.44-0.186l-0.145-0.434zM20.044 26.123h-0.457v4.026h0.914v-4.026h-0.457zM20.044 30.149l-0.18-0.42c0.003-0.001-0.003 0.002-0.024 0.007s-0.048 0.011-0.085 0.016l0.070 0.452 0.070 0.452c0.11-0.017 0.227-0.042 0.33-0.087l-0.18-0.42zM19.825 30.204l-0.111-0.443c-0.045 0.011-0.105 0.019-0.185 0.019v0.914c0.139 0 0.276-0.014 0.407-0.047l-0.111-0.443zM19.529 30.237v-0.457c-0.079 0-0.131-0.008-0.164-0.016s-0.035-0.015-0.026-0.007l-0.565 0.719c0.22 0.173 0.499 0.218 0.754 0.218v-0.457zM19.057 30.117l0.282-0.359c0.009 0.007 0.017 0.016 0.023 0.024s0.007 0.013 0.007 0.012c-0.001-0.003-0.009-0.026-0.009-0.082h-0.914c0 0.263 0.072 0.564 0.328 0.765l0.282-0.359zM18.903 29.711h0.457v-3.621h-0.914v3.621h0.457zM18.903 26.090h0.457c0-0.113 0.023-0.153 0.026-0.159l-0.769-0.494c-0.128 0.199-0.171 0.43-0.171 0.653h0.457zM19.002 25.684l0.385 0.247c0.019-0.029 0.073-0.090 0.198-0.174l-0.507-0.761c-0.181 0.121-0.347 0.265-0.46 0.44l0.385 0.247zM19.331 25.377l0.237 0.391c0.162-0.099 0.392-0.199 0.699-0.294l-0.272-0.873c-0.351 0.109-0.655 0.236-0.902 0.386l0.237 0.391zM20.132 25.037l0.136 0.437c0.277-0.086 0.603-0.133 0.983-0.133v-0.914c-0.454 0-0.874 0.056-1.255 0.174l0.136 0.437zM21.251 24.883v0.457c0.644 0 1.087 0.146 1.382 0.383l0.571-0.714c-0.509-0.407-1.179-0.583-1.953-0.583v0.457zM22.919 25.366l-0.282 0.36c0.263 0.206 0.428 0.534 0.428 1.077h0.914c0-0.744-0.238-1.374-0.779-1.797l-0.282 0.36zM23.522 26.803h-0.457v3.346h0.914v-3.346h-0.457zM23.522 30.149l-0.18-0.42c0.003-0.001-0.003 0.002-0.024 0.007s-0.048 0.011-0.085 0.016l0.070 0.452 0.070 0.452c0.11-0.017 0.227-0.042 0.33-0.087l-0.18-0.42zM23.303 30.204l-0.103-0.445c-0.058 0.013-0.125 0.021-0.204 0.021v0.914c0.14 0 0.277-0.014 0.41-0.045l-0.103-0.445zM22.996 30.237v-0.457c-0.079 0-0.131-0.008-0.164-0.016s-0.035-0.015-0.026-0.007l-0.565 0.719c0.22 0.173 0.499 0.218 0.754 0.218v-0.457zM22.524 30.117l0.282-0.359c0.009 0.007 0.017 0.016 0.023 0.024s0.007 0.013 0.007 0.012c-0.001-0.003-0.009-0.026-0.009-0.082h-0.914c0 0.263 0.072 0.564 0.328 0.765l0.282-0.359zM22.37 29.711h0.457v-2.864h-0.914v2.864h0.457zM26.228 30.149l0.18 0.42 0.277-0.119v-0.301h-0.457zM26.008 30.204l-0.070-0.452-0.021 0.003-0.020 0.005 0.111 0.443zM25.076 25.070l-0.111-0.443-0.346 0.087v0.357h0.457zM25.295 25.015l-0.103-0.445-0.004 0.001-0.004 0.001 0.111 0.443zM26.074 25.103l-0.295 0.349 0.006 0.005 0.006 0.005 0.282-0.359zM25.153 22.985l0.314 0.332 0.005-0.004 0.005-0.005-0.323-0.323zM26.151 22.985l-0.332 0.314 0.005 0.005 0.005 0.005 0.323-0.323zM26.151 23.94l0.323 0.323 0.005-0.005 0.004-0.005-0.332-0.314zM25.153 23.94l-0.323 0.323 0.005 0.005 0.005 0.004 0.314-0.332zM26.228 30.149l-0.18-0.42c0.003-0.001-0.003 0.002-0.024 0.007s-0.048 0.011-0.085 0.016l0.070 0.452 0.070 0.452c0.11-0.017 0.227-0.042 0.33-0.087l-0.18-0.42zM26.008 30.204l-0.111-0.443c-0.043 0.011-0.106 0.019-0.196 0.019v0.914c0.144 0 0.285-0.013 0.418-0.047l-0.111-0.443zM25.701 30.237v-0.457c-0.079 0-0.131-0.008-0.164-0.016s-0.035-0.015-0.026-0.007l-0.565 0.719c0.22 0.173 0.499 0.218 0.754 0.218v-0.457zM25.229 30.117l0.282-0.359c0.009 0.007 0.017 0.016 0.023 0.024s0.007 0.013 0.007 0.012c-0.001-0.003-0.009-0.026-0.009-0.082h-0.914c0 0.263 0.072 0.564 0.328 0.765l0.282-0.359zM25.076 29.711h0.457v-4.641h-0.914v4.641h0.457zM25.076 25.070l0.111 0.443c0.058-0.015 0.132-0.033 0.219-0.055l-0.222-0.887c-0.088 0.022-0.161 0.040-0.219 0.055l0.111 0.443zM25.295 25.015l0.103 0.445c0.055-0.013 0.126-0.021 0.215-0.021v-0.914c-0.145 0-0.286 0.014-0.421 0.045l0.103 0.445zM25.613 24.982v0.457c0.079 0 0.13 0.008 0.158 0.015s0.024 0.012 0.007-0.003l0.591-0.698c-0.218-0.185-0.505-0.229-0.756-0.229v0.457zM26.074 25.103l-0.282 0.359c-0.011-0.008-0.019-0.018-0.025-0.026s-0.007-0.013-0.006-0.011c0.002 0.005 0.010 0.033 0.010 0.094h0.914c0-0.264-0.068-0.572-0.328-0.776l-0.282 0.359zM26.228 25.52h-0.457v4.63h0.914v-4.63h-0.457zM24.955 23.457h0.457c0-0.072 0.019-0.106 0.054-0.139l-0.628-0.665c-0.228 0.215-0.341 0.495-0.341 0.804h0.457zM25.153 22.985l0.323 0.323c0.037-0.037 0.085-0.064 0.181-0.064v-0.914c-0.313 0-0.602 0.105-0.828 0.331l0.323 0.323zM25.657 22.788v0.457c0.097 0 0.135 0.026 0.161 0.054l0.665-0.628c-0.222-0.235-0.514-0.341-0.826-0.341v0.457zM26.151 22.985l-0.323 0.323c0.031 0.031 0.053 0.069 0.053 0.149h0.914c0-0.301-0.103-0.578-0.32-0.795l-0.323 0.323zM26.338 23.457h-0.457c0 0.080-0.022 0.127-0.062 0.169l0.665 0.628c0.209-0.221 0.311-0.496 0.311-0.797h-0.457zM26.151 23.94l-0.323-0.323c-0.024 0.024-0.065 0.053-0.17 0.053v0.914c0.304 0 0.593-0.096 0.817-0.32l-0.323-0.323zM25.657 24.126v-0.457c-0.105 0-0.155-0.028-0.191-0.062l-0.628 0.665c0.228 0.215 0.514 0.311 0.819 0.311v-0.457zM25.153 23.94l0.323-0.323c-0.044-0.044-0.064-0.088-0.064-0.16h-0.914c0 0.309 0.112 0.587 0.331 0.806l0.323-0.323zM30.802 29.195l0.269 0.37 0.188-0.137v-0.233h-0.457zM30.802 27.802h0.457v-0.506l-0.503 0.051 0.046 0.455zM29.607 27.922l-0.046-0.455-0.003 0 0.049 0.454zM28.849 28.153l0.25 0.383 0.006-0.004 0.006-0.004-0.261-0.375zM28.871 29.239l-0.277 0.364 0.005 0.004 0.005 0.003 0.267-0.371zM31.329 25.333l-0.273 0.367 0.004 0.003 0.269-0.37zM31.812 29.678l-0.349-0.295-0.002 0.003 0.351 0.293zM31.505 29.93l0.228 0.396 0.005-0.003 0.005-0.003-0.238-0.39zM28.060 29.919l-0.263 0.374 0.003 0.002 0.26-0.376zM27.928 27.582l-0.289-0.355-0.004 0.003 0.293 0.351zM30.802 26.957l0.046 0.455 0.411-0.041v-0.413h-0.457zM30.484 26.013l-0.266 0.372 0.003 0.002 0.003 0.002 0.26-0.376zM28.049 26.189l-0.286 0.357 0.225 0.18 0.259-0.125-0.199-0.412zM27.862 25.98l-0.395 0.23 0.004 0.008 0.005 0.007 0.386-0.245zM27.873 25.388l-0.354-0.289-0.008 0.010-0.008 0.011 0.37 0.269zM28.169 25.179l0.186 0.418 0.009-0.004 0.009-0.005-0.204-0.409zM28.871 24.96l0.075 0.451 0.006-0.001 0.006-0.001-0.087-0.449zM29.727 29.436v0.457c0.285 0 0.55-0.028 0.788-0.093l-0.238-0.883c-0.142 0.038-0.323 0.061-0.55 0.061v0.457zM30.396 29.36l0.119 0.441c0.202-0.054 0.405-0.126 0.556-0.236l-0.538-0.739c0-0-0.017 0.012-0.065 0.031-0.046 0.018-0.108 0.039-0.191 0.062l0.119 0.441zM30.802 29.195h0.457v-1.393h-0.914v1.393h0.457zM30.802 27.802l-0.046-0.455-1.196 0.121 0.092 0.91 1.196-0.121-0.046-0.455zM29.607 27.922l-0.049-0.454c-0.369 0.040-0.709 0.129-0.969 0.31l0.522 0.751c0.077-0.054 0.241-0.118 0.545-0.151l-0.049-0.454zM28.849 28.153l-0.25-0.383c-0.321 0.209-0.46 0.54-0.46 0.899h0.914c0-0.063 0.011-0.093 0.017-0.104 0.004-0.008 0.010-0.017 0.028-0.029l-0.25-0.383zM28.597 28.668h-0.457c0 0.376 0.152 0.704 0.455 0.934l0.553-0.728c-0.063-0.047-0.094-0.1-0.094-0.207h-0.457zM28.871 29.239l-0.267 0.371c0.299 0.215 0.701 0.284 1.123 0.284v-0.914c-0.353 0-0.522-0.063-0.589-0.111l-0.267 0.371zM29.705 24.883v0.457c0.616 0 1.051 0.136 1.351 0.359l0.546-0.733c-0.505-0.377-1.153-0.54-1.897-0.54v0.457zM31.329 25.333l-0.269 0.37c0.252 0.183 0.415 0.488 0.415 1.024h0.914c0-0.737-0.239-1.361-0.792-1.763l-0.269 0.37zM31.932 26.726h-0.457v2.556h0.914v-2.556h-0.457zM31.932 29.283h-0.457c0 0.098-0.023 0.112-0.013 0.1l0.698 0.591c0.171-0.203 0.229-0.452 0.229-0.69h-0.457zM31.812 29.678l-0.351-0.293c-0.032 0.039-0.091 0.092-0.194 0.155l0.477 0.78c0.16-0.098 0.306-0.213 0.42-0.35l-0.351-0.293zM31.505 29.93l-0.228-0.396c-0.145 0.083-0.349 0.166-0.625 0.24l0.237 0.883c0.324-0.087 0.609-0.195 0.845-0.331l-0.228-0.396zM30.769 30.215l-0.118-0.442c-0.252 0.068-0.559 0.105-0.924 0.105v0.914c0.425 0 0.813-0.043 1.161-0.136l-0.119-0.442zM29.727 30.336v-0.457c-0.657 0-1.109-0.13-1.408-0.336l-0.52 0.752c0.506 0.35 1.165 0.498 1.927 0.498v-0.457zM28.060 29.919l0.263-0.374c-0.257-0.181-0.398-0.442-0.398-0.855h-0.914c0 0.669 0.254 1.228 0.787 1.603l0.263-0.374zM27.467 28.69h0.457c0-0.378 0.115-0.606 0.296-0.757l-0.585-0.702c-0.433 0.361-0.625 0.872-0.625 1.459h0.457zM27.928 27.582l0.289 0.355c0.22-0.179 0.572-0.318 1.106-0.371l-0.091-0.91c-0.636 0.064-1.184 0.239-1.593 0.572l0.289 0.355zM29.277 27.11l0.046 0.455 1.525-0.154-0.046-0.455-0.046-0.455-1.525 0.154 0.046 0.455zM30.802 26.957h0.457v-0.241h-0.914v0.241h0.457zM30.802 26.715h0.457c0-0.43-0.149-0.825-0.516-1.078l-0.519 0.753c0.057 0.040 0.121 0.112 0.121 0.326h0.457zM30.484 26.013l0.266-0.372c-0.312-0.223-0.708-0.305-1.132-0.305v0.914c0.321 0 0.503 0.064 0.601 0.134l0.266-0.372zM29.617 25.794v-0.457c-0.335 0-0.661 0.046-0.975 0.14l0.261 0.876c0.227-0.067 0.464-0.102 0.715-0.102v-0.457zM28.773 25.914l-0.13-0.438c-0.29 0.086-0.555 0.186-0.793 0.301l0.398 0.823c0.186-0.090 0.404-0.173 0.656-0.248l-0.13-0.438zM28.049 26.189l0.286-0.357c-0.033-0.026-0.062-0.058-0.086-0.097l-0.771 0.491c0.078 0.122 0.174 0.23 0.287 0.32l0.286-0.357zM27.862 25.98l0.395-0.23c-0.010-0.017-0.015-0.033-0.015-0.055h-0.914c0 0.183 0.047 0.357 0.139 0.516l0.395-0.23zM27.785 25.695h0.457c0-0.027 0.003-0.040 0.004-0.044s0 0-0.004 0.006l-0.739-0.538c-0.128 0.176-0.175 0.38-0.175 0.576h0.457zM27.873 25.388l0.354 0.289c0.007-0.008 0.038-0.040 0.128-0.080l-0.371-0.835c-0.173 0.077-0.339 0.184-0.464 0.337l0.354 0.289zM28.169 25.179l0.204 0.409c0.158-0.079 0.347-0.14 0.573-0.177l-0.15-0.902c-0.301 0.050-0.58 0.136-0.831 0.262l0.204 0.409zM28.871 24.96l0.087 0.449c0.232-0.045 0.481-0.068 0.747-0.068v-0.914c-0.319 0-0.627 0.028-0.921 0.085l0.087 0.449z"></path>
</symbol>
<symbol id="icon-closebtn" viewBox="0 0 32 32">
<path stroke-linejoin="round" stroke-linecap="round" stroke-miterlimit="4" stroke-width="2.6667" d="M6.667 6.667l18.667 18.667M6.667 25.334l18.667-18.667"></path>
</symbol>
<symbol id="icon-burger" viewBox="0 0 32 32">
<path stroke-linejoin="round" stroke-linecap="round" stroke-miterlimit="4" stroke-width="2" d="M6.667 6.667h18.667M6.667 25.334h18.667"></path>
<path stroke-linejoin="round" stroke-linecap="round" stroke-miterlimit="4" stroke-width="2" d="M6.667 16h18.667"></path>
</symbol>
<symbol id="icon-goback" viewBox="0 0 32 32">
<path d="M21.414 3.272c0.375 0.375 0.586 0.884 0.586 1.414s-0.211 1.039-0.586 1.414l-9.9 9.9 9.9 9.9c0.364 0.377 0.566 0.882 0.561 1.407s-0.215 1.026-0.586 1.397c-0.371 0.371-0.873 0.581-1.397 0.586s-1.030-0.197-1.407-0.561l-11.314-11.314c-0.375-0.375-0.586-0.884-0.586-1.414s0.211-1.039 0.586-1.414l11.314-11.314c0.375-0.375 0.884-0.586 1.414-0.586s1.039 0.211 1.414 0.586z"></path>
</symbol>
 <symbol id="icon-reviews-comma" viewBox="0 0 34 32">
<path d="M31.337 2.066c0 0 0.146 0.049 0.439 0.146s0.585 0.39 0.878 0.878c0.293 0.39 0.439 1.121 0.439 2.194 0 1.56-0.244 2.536-0.731 2.926s-0.78 0.585-0.878 0.585c-0.098 0-0.683 0.439-1.755 1.317-0.975 0.878-1.609 2.389-1.902 4.535 0.878 0.098 1.609 0.293 2.194 0.585s1.121 0.683 1.609 1.17c0.682 0.683 1.073 1.56 1.17 2.633 0.195 1.073 0.293 2.146 0.293 3.218 0 1.268-0.146 2.487-0.439 3.657-0.195 1.17-0.829 2.146-1.902 2.926-1.073 0.683-2.877 1.024-5.413 1.024-2.926 0-4.974-0.585-6.144-1.755-0.78-0.683-1.219-1.56-1.317-2.633s-0.146-2.194-0.146-3.365c0-0.585 0-1.122 0-1.609s0.049-1.024 0.146-1.609c0.293-3.023 1.073-5.803 2.341-8.338 1.268-2.633 2.828-4.681 4.681-6.144 1.95-1.56 4.096-2.341 6.437-2.341zM14.221 2.066c0 0 0.146 0.049 0.439 0.146s0.536 0.39 0.731 0.878c0.293 0.39 0.439 1.121 0.439 2.194 0 1.56-0.244 2.536-0.731 2.926-0.39 0.39-0.634 0.585-0.731 0.585s-0.683 0.439-1.755 1.317c-0.975 0.878-1.609 2.389-1.902 4.535 0.878 0.098 1.609 0.293 2.194 0.585s1.122 0.683 1.609 1.17c0.683 0.683 1.073 1.56 1.17 2.633 0.195 1.073 0.293 2.146 0.293 3.218 0 1.268-0.146 2.487-0.439 3.657-0.195 1.17-0.829 2.146-1.902 2.926-1.073 0.683-2.877 1.024-5.413 1.024-2.926 0-5.022-0.585-6.29-1.755-0.683-0.683-1.122-1.56-1.317-2.633-0.098-1.073-0.146-2.194-0.146-3.365 0-0.585 0-1.122 0-1.609 0.098-0.488 0.195-1.024 0.293-1.609 0.293-3.023 1.073-5.803 2.341-8.338 1.268-2.633 2.828-4.681 4.681-6.144 1.95-1.56 4.096-2.341 6.437-2.341z"></path>
</symbol>
<symbol id="icon-faq-close" viewBox="0 0 32 32">
<path stroke-linejoin="round" stroke-linecap="round" stroke-miterlimit="4" stroke-width="1.8551" d="M6.661 15.842l18.651 0.287M16.13 25.311l-0.287-18.651"></path>
</symbol>
<symbol id="icon-faq-open" viewBox="0 0 32 32">
<path stroke-linejoin="round" stroke-linecap="round" stroke-miterlimit="4" stroke-width="2.6667" d="M6.667 6.666l18.667 18.667M6.667 25.333l18.667-18.667"></path>
</symbol> 
</defs>
</svg>
