<svg width="40" height="32" viewBox="0 0 40 32" fill="none" xmlns="http://www.w3.org/2000/svg">
<path fill-rule="evenodd" clip-rule="evenodd" d="M3.33329 15.9993C3.33329 16.7357 4.07949 17.3327 4.99996 17.3327L35 17.3327C35.9204 17.3327 36.6666 16.7357 36.6666 15.9993C36.6666 15.263 35.9204 14.666 35 14.666L4.99996 14.666C4.07949 14.666 3.33329 15.263 3.33329 15.9993Z" fill="#5C2D91"/>
<path fill-rule="evenodd" clip-rule="evenodd" d="M3.82153 15.0578C3.17066 15.5785 3.17066 16.4227 3.82153 16.9434L15.4882 26.2768C16.1391 26.7975 17.1943 26.7975 17.8452 26.2768C18.4961 25.7561 18.4961 24.9119 17.8452 24.3912L7.35706 16.0006L17.8452 7.61013C18.4961 7.08943 18.4961 6.24521 17.8452 5.72451C17.1943 5.20381 16.1391 5.20381 15.4882 5.72451L3.82153 15.0578Z" fill="#5C2D91"/>
</svg>
