<svg width="40" height="32" viewBox="0 0 40 32" fill="none" xmlns="http://www.w3.org/2000/svg">
<path fill-rule="evenodd" clip-rule="evenodd" d="M36.6667 15.9993C36.6667 16.7357 35.9205 17.3327 35 17.3327L5.00004 17.3327C4.07957 17.3327 3.33337 16.7357 3.33337 15.9993C3.33337 15.263 4.07957 14.666 5.00004 14.666L35 14.666C35.9205 14.666 36.6667 15.263 36.6667 15.9993Z" fill="#5C2D91"/>
<path fill-rule="evenodd" clip-rule="evenodd" d="M36.1785 15.0578C36.8293 15.5785 36.8293 16.4227 36.1785 16.9434L24.5118 26.2768C23.8609 26.7975 22.8057 26.7975 22.1548 26.2768C21.5039 25.7561 21.5039 24.9119 22.1548 24.3912L32.6429 16.0006L22.1548 7.61013C21.5039 7.08943 21.5039 6.24521 22.1548 5.72451C22.8057 5.20381 23.8609 5.20381 24.5118 5.72451L36.1785 15.0578Z" fill="#5C2D91"/>
</svg>
