<svg aria-hidden="true" style="position: absolute; width: 0; height: 0; overflow: hidden;" version="1.1" xmlns="http://www.w3.org/2000/svg" xmlns:xlink="http://www.w3.org/1999/xlink">
<defs>
<symbol id="icon-reviews-comma" viewBox="0 0 34 32">
<path d="M31.337 2.066c0 0 0.146 0.049 0.439 0.146s0.585 0.39 0.878 0.878c0.293 0.39 0.439 1.121 0.439 2.194 0 1.56-0.244 2.536-0.731 2.926s-0.78 0.585-0.878 0.585c-0.098 0-0.683 0.439-1.755 1.317-0.975 0.878-1.609 2.389-1.902 4.535 0.878 0.098 1.609 0.293 2.194 0.585s1.121 0.683 1.609 1.17c0.682 0.683 1.073 1.56 1.17 2.633 0.195 1.073 0.293 2.146 0.293 3.218 0 1.268-0.146 2.487-0.439 3.657-0.195 1.17-0.829 2.146-1.902 2.926-1.073 0.683-2.877 1.024-5.413 1.024-2.926 0-4.974-0.585-6.144-1.755-0.78-0.683-1.219-1.56-1.317-2.633s-0.146-2.194-0.146-3.365c0-0.585 0-1.122 0-1.609s0.049-1.024 0.146-1.609c0.293-3.023 1.073-5.803 2.341-8.338 1.268-2.633 2.828-4.681 4.681-6.144 1.95-1.56 4.096-2.341 6.437-2.341zM14.221 2.066c0 0 0.146 0.049 0.439 0.146s0.536 0.39 0.731 0.878c0.293 0.39 0.439 1.121 0.439 2.194 0 1.56-0.244 2.536-0.731 2.926-0.39 0.39-0.634 0.585-0.731 0.585s-0.683 0.439-1.755 1.317c-0.975 0.878-1.609 2.389-1.902 4.535 0.878 0.098 1.609 0.293 2.194 0.585s1.122 0.683 1.609 1.17c0.683 0.683 1.073 1.56 1.17 2.633 0.195 1.073 0.293 2.146 0.293 3.218 0 1.268-0.146 2.487-0.439 3.657-0.195 1.17-0.829 2.146-1.902 2.926-1.073 0.683-2.877 1.024-5.413 1.024-2.926 0-5.022-0.585-6.29-1.755-0.683-0.683-1.122-1.56-1.317-2.633-0.098-1.073-0.146-2.194-0.146-3.365 0-0.585 0-1.122 0-1.609 0.098-0.488 0.195-1.024 0.293-1.609 0.293-3.023 1.073-5.803 2.341-8.338 1.268-2.633 2.828-4.681 4.681-6.144 1.95-1.56 4.096-2.341 6.437-2.341z"></path>
</symbol>
<symbol id="icon-faq-close" viewBox="0 0 32 32">
<path stroke-linejoin="round" stroke-linecap="round" stroke-miterlimit="4" stroke-width="1.8551" d="M6.661 15.842l18.651 0.287M16.13 25.311l-0.287-18.651"></path>
</symbol>
<symbol id="icon-faq-open" viewBox="0 0 32 32">
<path stroke-linejoin="round" stroke-linecap="round" stroke-miterlimit="4" stroke-width="2.6667" d="M6.667 6.666l18.667 18.667M6.667 25.333l18.667-18.667"></path>
</symbol>
</defs>
</svg>
